<svg width="37" height="30" viewBox="0 0 47 40" fill="none" xmlns="http://www.w3.org/2000/svg">
<g filter="url(#filter0_d_10333_65690)">
<path fill-rule="evenodd" clip-rule="evenodd" d="M39.3353 28.8614L40.5145 26.9032L40.5098 26.9004L40.6128 26.7297C41.3217 25.7066 42.3674 22.5634 42.3674 22.5634C42.5991 21.2175 41.5039 19.8834 40.4906 18.9673C40.406 18.4732 40.0769 17.9834 39.5574 17.6692L36.482 15.8099C36.0692 15.5602 35.6114 15.4684 35.2026 15.5207L34.7529 15.2487L33.3861 14.4221L33.6415 12.8337L33.1756 12.5518L32.5909 13.9413L24.4214 9.00096C24.2766 8.61401 23.9839 8.25145 23.57 8.00093L16.0556 3.45672C15.5949 3.17813 15.08 3.09671 14.6369 3.19035C13.6461 2.77483 12.0403 2.28886 11.391 3.1575L8.02764 8.74308L4.66483 14.3281C4.20054 15.3088 5.37859 16.5055 6.20681 17.1905C6.33064 17.6275 6.64227 18.046 7.10311 18.3247L14.6174 22.8688C15.0316 23.1192 15.4881 23.21 15.8969 23.1578L24.1203 28.1305L23.2456 29.2001L23.7113 29.4819L24.8875 28.5945L26.2285 29.4053L26.6811 29.6897C26.829 30.0733 27.1189 30.4298 27.5294 30.678L30.6048 32.5374C31.0234 32.7904 31.4877 32.8816 31.9005 32.8254C33.2004 33.3318 35.0131 33.7673 36.1502 32.889C36.1502 32.889 38.4371 30.4968 39.0099 29.3915L39.3308 28.8588L39.3353 28.8614Z" fill="white"/>
</g>
<rect width="2.42375" height="6.06002" rx="1" transform="matrix(0.865797 0.500395 -0.500839 0.865541 10.3266 6.57196)" fill="#242E42"/>
<rect width="2.42382" height="4.84803" rx="1" transform="matrix(0.865796 0.500397 -0.500886 0.865514 12.1465 3.42465)" fill="#F52D56"/>
<rect width="1.21182" height="6.05991" rx="0.605909" transform="matrix(0.865837 0.500325 -0.500725 0.865606 40.1682 25.2007)" fill="#242E42"/>
<rect width="2.42382" height="4.84803" rx="1" transform="matrix(0.865796 0.500397 -0.500886 0.865514 7.89949 10.7684)" fill="#F52D56"/>
<path fill-rule="evenodd" clip-rule="evenodd" d="M31.5934 23.8294L31.5851 23.824C30.2249 25.8015 29.1031 26.9331 28.2018 27.5535C27.2086 28.237 26.4838 28.3009 26.0077 28.1935C26.0006 28.1921 25.9942 28.1895 25.9878 28.1882C25.898 28.167 25.818 28.1404 25.7459 28.1093C25.4474 27.9834 25.3028 27.807 25.3028 27.807L21.764 23.1185C22.6845 23.0801 24.76 20.3212 25.5226 19.2657C26.1791 18.1402 27.8592 15.1249 27.5236 14.2657L33.2303 15.6219C33.2303 15.6219 33.4499 15.6832 33.6848 15.9068C33.7411 15.9592 33.796 16.0206 33.8513 16.0922C33.8563 16.0983 33.8623 16.1056 33.8676 16.1124C34.157 16.5067 34.3908 17.1975 34.168 18.385C33.9639 19.4619 33.3834 20.9467 32.1269 22.9912L32.1352 22.9965C32.0434 23.1386 31.9529 23.2767 31.8637 23.4125C31.7759 23.5488 31.6865 23.6877 31.5934 23.8294Z" fill="#242E42"/>
<path fill-rule="evenodd" clip-rule="evenodd" d="M20.4557 10.1151L16.7398 15.8278L14.493 19.2815L14.3524 19.4981C12.716 20.0938 10.5624 18.7677 9.22972 17.7415L16.8367 6.04667C18.3107 6.85569 20.3897 8.29698 20.5058 10.0381L20.4557 10.1151Z" fill="#242E42"/>
<path fill-rule="evenodd" clip-rule="evenodd" d="M21.3522 7.34007C22.5626 8.03903 31.6516 13.2872 31.6516 13.2872C31.6516 13.2872 25.9951 12.8203 24.7901 12.1245C23.5851 11.4287 20.1417 6.6411 21.3522 7.34007Z" fill="#242E42"/>
<path fill-rule="evenodd" clip-rule="evenodd" d="M12.8623 22.0305C14.0727 22.7295 23.1617 27.9777 23.1617 27.9777C23.1617 27.9777 19.7829 23.2275 18.5779 22.5317C17.3729 21.8359 11.6518 21.3316 12.8623 22.0305Z" fill="#242E42"/>
<defs>
<filter id="filter0_d_10333_65690" x="0.559891" y="0.673981" width="45.8389" height="38.7186" filterUnits="userSpaceOnUse" color-interpolation-filters="sRGB">
<feFlood flood-opacity="0" result="BackgroundImageFix"/>
<feColorMatrix in="SourceAlpha" type="matrix" values="0 0 0 0 0 0 0 0 0 0 0 0 0 0 0 0 0 0 127 0" result="hardAlpha"/>
<feOffset dy="2"/>
<feGaussianBlur stdDeviation="2"/>
<feColorMatrix type="matrix" values="0 0 0 0 0 0 0 0 0 0 0 0 0 0 0 0 0 0 0.2 0"/>
<feBlend mode="normal" in2="BackgroundImageFix" result="effect1_dropShadow_10333_65690"/>
<feBlend mode="normal" in="SourceGraphic" in2="effect1_dropShadow_10333_65690" result="shape"/>
</filter>
</defs>
</svg>
