<svg width="18" height="18" viewBox="0 0 18 18" fill="none" xmlns="http://www.w3.org/2000/svg">
<path d="M3.99269 7.26293C5.80295 4.05972 6.70807 2.45811 7.95013 2.04584C8.63338 1.81903 9.36943 1.81903 10.0527 2.04584C11.2948 2.45811 12.1999 4.05972 14.0101 7.26293C15.8204 10.4662 16.7255 12.0677 16.454 13.3727C16.3046 14.0907 15.9366 14.7419 15.4027 15.233C14.4322 16.1257 12.622 16.1257 9.00141 16.1257C5.38089 16.1257 3.57063 16.1257 2.60013 15.233C2.06622 14.7419 1.6982 14.0907 1.54882 13.3727C1.2773 12.0677 2.18243 10.4662 3.99269 7.26293Z" stroke="#FAB11D" stroke-width="1.125"/>
<path d="M8.99585 12.0007H9.00148" stroke="#FAB11D" stroke-width="1.5" stroke-linecap="round" stroke-linejoin="round"/>
<path d="M9 9.75V6.75" stroke="#FAB11D" stroke-width="1.125" stroke-linecap="round" stroke-linejoin="round"/>
</svg>
