<svg width="24" height="24" viewBox="0 0 24 24" fill="none" xmlns="http://www.w3.org/2000/svg">
<path fill-rule="evenodd" clip-rule="evenodd" d="M10.3591 2.01353C11.4235 1.6602 12.5707 1.6602 13.6351 2.01353C14.6952 2.3654 15.5275 3.19994 16.3636 4.37248C17.197 5.54113 18.1179 7.17059 19.3049 9.27103L19.3515 9.35349C20.5388 11.4542 21.4596 13.0836 22.0335 14.405C22.6101 15.7328 22.8973 16.8792 22.6682 17.9806C22.4374 19.0896 21.8685 20.098 21.0399 20.8602C20.2133 21.6205 19.0878 21.9413 17.6707 22.0953C16.2616 22.2485 14.4183 22.2485 12.0459 22.2485H11.9484C9.57589 22.2485 7.73261 22.2485 6.32349 22.0953C4.90634 21.9413 3.78086 21.6205 2.95429 20.8602C2.12569 20.098 1.55675 19.0896 1.32602 17.9806C1.09687 16.8792 1.38407 15.7328 1.96072 14.405C2.53459 13.0836 3.45542 11.4542 4.64265 9.35348L4.68925 9.27103C5.87628 7.1706 6.79715 5.54113 7.63054 4.37248C8.4667 3.19994 9.29901 2.3654 10.3591 2.01353ZM10.9971 16.9985C10.9971 16.4462 11.4428 15.9985 11.9926 15.9985H12.0016C12.5514 15.9985 12.9971 16.4462 12.9971 16.9985C12.9971 17.5508 12.5514 17.9985 12.0016 17.9985H11.9926C11.4428 17.9985 10.9971 17.5508 10.9971 16.9985ZM10.9971 12.9985C10.9971 13.5508 11.4448 13.9985 11.9971 13.9985C12.5494 13.9985 12.9971 13.5508 12.9971 12.9985V8.99853C12.9971 8.44625 12.5494 7.99853 11.9971 7.99853C11.4448 7.99853 10.9971 8.44625 10.9971 8.99853V12.9985Z" fill="#E92D53"/>
</svg>
