<svg width="18" height="18" viewBox="0 0 18 18" fill="none" xmlns="http://www.w3.org/2000/svg">
<path d="M12.1875 14.9999C12.1875 15.4142 12.5233 15.7499 12.9375 15.7499C13.3517 15.7499 13.6875 15.4142 13.6875 14.9999L13.6875 5.99999L14.5738 6L14.5992 6.00002C14.7015 6.00019 14.8506 6.00042 14.9775 5.98095C15.1162 5.95968 15.4799 5.87859 15.6647 5.492C15.8481 5.10828 15.6893 4.77137 15.6184 4.64523C15.555 4.53236 15.4626 4.41455 15.3999 4.33466L15.3843 4.31471C15.1212 3.97815 14.7392 3.50901 14.3617 3.11831C14.1745 2.92457 13.9711 2.73197 13.7716 2.58249C13.6717 2.50767 13.5574 2.43193 13.4339 2.37239C13.318 2.31646 13.1438 2.25 12.9375 2.25C12.7312 2.25 12.557 2.31646 12.4411 2.37239C12.3177 2.43193 12.2033 2.50767 12.1035 2.58249C11.9039 2.73197 11.7005 2.92456 11.5133 3.1183C11.1358 3.50899 10.7539 3.97813 10.4908 4.31468L10.4751 4.33463C10.4125 4.41451 10.32 4.53233 10.2566 4.64521C10.1857 4.77134 10.0269 5.10825 10.2103 5.49198C10.3951 5.87857 10.7588 5.95966 10.8975 5.98093C11.0244 6.0004 11.1735 6.00017 11.2758 6.00001L11.3012 5.99998L12.1875 5.99998L12.1875 14.9999Z" fill="#0AB247"/>
<path d="M4.31249 3C4.31249 2.58579 4.64826 2.25 5.06249 2.25C5.47671 2.25 5.81249 2.58579 5.81249 3L5.81249 12L6.69876 12L6.72419 12C6.82649 11.9998 6.97559 11.9995 7.10249 12.019C7.24116 12.0403 7.60491 12.1214 7.78971 12.5079C7.97309 12.8917 7.81431 13.2286 7.74336 13.3548C7.67999 13.4676 7.58759 13.5854 7.52489 13.6653L7.50929 13.6853C7.24611 14.0218 6.86421 14.4909 6.48666 14.8816C6.29946 15.0754 6.09614 15.268 5.89656 15.4175C5.79666 15.4923 5.68236 15.568 5.55891 15.6276C5.44304 15.6835 5.26881 15.75 5.06249 15.75C4.85616 15.75 4.68201 15.6835 4.56606 15.6276C4.44269 15.568 4.32831 15.4923 4.22841 15.4175C4.02884 15.268 3.82551 15.0754 3.63831 14.8817C3.26084 14.4909 2.87886 14.0218 2.61576 13.6853L2.60009 13.6653C2.53746 13.5855 2.44499 13.4676 2.38161 13.3548C2.31066 13.2286 2.15189 12.8917 2.33526 12.508C2.52006 12.1214 2.88381 12.0403 3.02249 12.019C3.14939 11.9996 3.29849 11.9998 3.40079 12L3.42621 12L4.31249 12L4.31249 3Z" fill="#0AB247"/>
</svg>
