<svg width="24" height="24" viewBox="0 0 24 24" fill="none" xmlns="http://www.w3.org/2000/svg">
<path fill-rule="evenodd" clip-rule="evenodd" d="M11.9971 1.24921C6.06001 1.24921 1.24707 6.06215 1.24707 11.9992C1.24707 17.9363 6.06001 22.7492 11.9971 22.7492C17.9342 22.7492 22.7471 17.9363 22.7471 11.9992C22.7471 6.06215 17.9342 1.24921 11.9971 1.24921ZM12.9971 7.99921C12.9971 7.44693 12.5494 6.99921 11.9971 6.99921C11.4448 6.99921 10.9971 7.44693 10.9971 7.99921V11.9992C10.9971 12.2644 11.1025 12.5188 11.29 12.7063L13.29 14.7063C13.6805 15.0968 14.3137 15.0968 14.7042 14.7063C15.0947 14.3158 15.0947 13.6826 14.7042 13.2921L12.9971 11.585V7.99921Z" fill="#0AB247"/>
</svg>
