<svg width="430" height="257" viewBox="0 0 430 257" fill="none" xmlns="http://www.w3.org/2000/svg">
<g clip-path="url(#clip0_10333_64011)">
<rect width="430" height="257" fill="#ECFFF3"/>
<g filter="url(#filter0_b_10333_64011)">
<rect x="16" y="24" width="44" height="44" rx="13" fill="white"/>
<path d="M45 39L31 53M31 39L45 53" stroke="#2F2F3F" stroke-width="1.5" stroke-linecap="round" stroke-linejoin="round"/>
</g>
<circle cx="414" cy="11" r="91" fill="#C3FED8"/>
<circle cx="15" cy="253" r="91" fill="#C3FED8"/>
<path d="M186.08 63.4968L189.742 115.795C190.34 124.334 197.385 130.953 205.877 130.953C215.225 130.953 222.631 122.984 222.017 113.581C221.692 108.602 221.398 104.526 221.398 104.526C221.398 104.526 233.958 102.558 234.113 89.8991C234.202 82.5877 232.951 65.9965 231.879 53.2855C231.154 44.6925 224.018 38.0966 215.464 38.0966H207.878C194.814 38.8659 184.956 50.3531 186.08 63.4968Z" fill="#B78876"/>
<path d="M221.471 104.363C221.471 104.363 213.535 105.014 205.101 99.6726C205.101 99.6726 208.97 108.783 221.501 107.643L221.471 104.363Z" fill="#AA6550"/>
<path d="M228.117 68.6039C228.15 69.5584 227.376 70.3743 226.388 70.4281C225.401 70.4814 224.572 69.7531 224.539 68.7981C224.506 67.8436 225.279 67.0266 226.266 66.9733C227.255 66.9189 228.084 67.6495 228.117 68.6039Z" fill="#263238"/>
<path d="M229.821 65.9994C229.598 66.2351 228.24 65.2217 226.311 65.2268C224.383 65.2038 222.967 66.2048 222.758 65.9663C222.655 65.8608 222.881 65.4355 223.498 64.9827C224.105 64.5321 225.141 64.0939 226.342 64.0989C227.545 64.1057 228.556 64.5517 229.137 65.0079C229.729 65.4675 229.93 65.8939 229.821 65.9994Z" fill="#263238"/>
<path d="M209.212 68.6004C209.245 69.5549 208.471 70.3707 207.483 70.424C206.497 70.4773 205.668 69.749 205.635 68.794C205.601 67.8395 206.375 67.0225 207.362 66.9692C208.35 66.9154 209.179 67.6459 209.212 68.6004Z" fill="#263238"/>
<path d="M210.802 66.3554C210.58 66.5911 209.219 65.5777 207.291 65.5833C205.364 65.5603 203.947 66.5608 203.738 66.3229C203.635 66.2174 203.859 65.7921 204.478 65.3398C205.085 64.8887 206.12 64.451 207.322 64.4555C208.524 64.4622 209.535 64.9083 210.117 65.3651C210.709 65.8235 210.911 66.2499 210.802 66.3554Z" fill="#263238"/>
<path d="M217.786 80.7905C217.777 80.68 218.977 80.4713 220.92 80.2204C221.413 80.1694 221.88 80.0706 221.962 79.7311C222.079 79.372 221.872 78.8373 221.633 78.2588C221.17 77.0568 220.685 75.7966 220.176 74.4763C218.152 69.0906 216.688 64.6623 216.903 64.582C217.119 64.5018 218.935 68.8017 220.958 74.1873C221.445 75.5155 221.911 76.7813 222.354 77.9928C222.54 78.5573 222.861 79.1975 222.61 79.9421C222.477 80.313 222.115 80.5829 221.799 80.6688C221.484 80.7658 221.206 80.7715 220.963 80.786C219.007 80.8921 217.793 80.9011 217.786 80.7905Z" fill="#263238"/>
<path d="M212.081 82.1234C212.394 82.1049 212.398 84.2164 214.191 85.7151C215.981 87.2189 218.214 86.9816 218.23 87.2767C218.259 87.4091 217.732 87.6863 216.791 87.7127C215.866 87.7447 214.516 87.445 213.419 86.5287C212.325 85.6096 211.855 84.383 211.784 83.5166C211.704 82.634 211.937 82.111 212.081 82.1234Z" fill="#263238"/>
<path d="M211.3 58.7568C211.11 59.2859 209.183 59.0351 206.92 59.3106C204.65 59.5395 202.824 60.2078 202.523 59.7337C202.389 59.5064 202.708 59.0093 203.446 58.497C204.178 57.9858 205.346 57.4999 206.704 57.3472C208.063 57.198 209.308 57.4151 210.132 57.7535C210.963 58.0902 211.382 58.5059 211.3 58.7568Z" fill="#263238"/>
<path d="M229.073 60.3734C228.733 60.815 227.404 60.3565 225.805 60.3352C224.208 60.2572 222.854 60.632 222.542 60.1702C222.406 59.9458 222.618 59.5036 223.21 59.085C223.793 58.6681 224.767 58.3275 225.866 58.3612C226.965 58.3965 227.917 58.7966 228.473 59.2494C229.037 59.7028 229.223 60.1579 229.073 60.3734Z" fill="#263238"/>
<path d="M190.436 72.9894C190.221 72.8957 181.807 70.4167 182.082 79.0708C182.356 87.7255 190.918 85.6628 190.925 85.4137C190.933 85.1657 190.436 72.9894 190.436 72.9894Z" fill="#B78876"/>
<path d="M188.2 82.2497C188.161 82.2233 188.054 82.3602 187.804 82.4848C187.562 82.6066 187.14 82.6986 186.687 82.5437C185.769 82.2373 184.96 80.8104 184.869 79.2522C184.821 78.4649 184.962 77.7097 185.219 77.0801C185.46 76.4382 185.853 75.9831 186.307 75.8866C186.758 75.7659 187.09 76.0314 187.203 76.2715C187.325 76.51 187.276 76.6845 187.322 76.698C187.347 76.7187 187.502 76.547 187.422 76.1918C187.381 76.0212 187.274 75.8204 187.067 75.6604C186.856 75.4983 186.55 75.422 186.233 75.4663C185.573 75.5336 184.996 76.1671 184.713 76.8584C184.394 77.5542 184.219 78.4038 184.271 79.287C184.382 81.0287 185.319 82.6324 186.571 82.9539C187.18 83.093 187.678 82.8933 187.932 82.6812C188.191 82.4595 188.231 82.2648 188.2 82.2497Z" fill="#AA6550"/>
<path d="M185.606 72.72C186.916 72.4007 189.181 73.6189 189.739 74.855C190.297 76.0912 190.42 77.4912 190.976 78.7279C191.533 79.9646 192.791 81.0829 194.102 80.7704C195.006 80.5543 195.653 79.7003 195.891 78.7952C196.13 77.8901 196.033 76.9334 195.917 76.0042C195.411 71.9625 194.568 67.9544 194.407 63.884C194.245 59.8137 194.82 55.5845 196.941 52.1168C199.061 48.6491 202.955 46.0988 206.983 46.4259C209.651 46.6425 212.098 48.0453 214.749 48.4196C217.892 48.8634 221.215 47.7451 223.463 45.4872C223.751 45.1982 225.091 44.3071 225.091 44.3071C225.091 44.0973 224.895 42.2899 224.188 41.6311C218.929 36.7286 209.454 35.3601 202.507 37.1225C195.561 38.885 189.05 43.829 186.061 50.3908C183.073 56.9525 183.96 66.0797 185.606 72.72Z" fill="#263238"/>
<path d="M232.084 51.344C232.084 51.344 199.141 40.6592 184.891 69.3913C184.891 69.3913 182.761 62.2011 182.761 58.3468C182.761 55.7724 184.289 40.4415 199.937 35.6192C199.937 35.6192 223.511 26.5487 232.084 51.344Z" fill="#0AB247"/>
<path d="M203.789 52.0592C204.953 53.9552 207.031 55.2503 209.234 55.4523C211.437 55.6543 213.712 54.7582 215.196 53.1051C215.847 54.7414 217.593 55.8658 219.339 55.7738C221.085 55.6818 222.705 54.3794 223.182 52.6832C224.138 53.6191 225.135 54.5803 226.387 55.0421C227.638 55.5045 229.225 55.3294 230.047 54.2717C230.884 53.1938 230.641 51.5525 229.819 50.4623C228.998 49.372 227.733 48.7233 226.48 48.1959C222.567 46.5484 218.252 45.7225 214.049 46.2959C209.847 46.8694 205.776 48.9237 203.15 52.2797" fill="#263238"/>
<g opacity="0.4">
<path d="M232.084 51.344C232.084 51.344 228.336 46.8483 221.609 46.5487C211.892 46.1161 193.703 51.624 184.891 69.3913C184.891 69.3913 182.761 62.2011 182.761 58.3468C182.761 55.7724 184.289 40.4415 199.937 35.6192C199.937 35.6192 223.511 26.5487 232.084 51.344Z" fill="black"/>
</g>
<path d="M186.263 66.0271C191.149 58.493 197.883 52.264 205.456 47.495C213.029 42.7261 225.55 38.0093 234.18 35.7003C236.771 35.0073 239.472 34.4013 242.114 34.8614C244.755 35.3215 247.34 37.0947 247.996 39.7145C248.816 42.9943 243.043 48.055 240.33 50.0453C237.617 52.035 232.082 54.9546 232.082 54.9546C232.082 54.9546 232.156 48.8715 222.498 47.6168C209.361 45.9104 186.263 66.0271 186.263 66.0271Z" fill="#0AB247"/>
<path d="M213.277 41.2081C213.277 41.2081 218.024 38.5607 222.791 37.944C221.812 37.2213 221.289 36.874 220.205 36.3796C217.767 36.8684 215.295 37.4923 212.791 38.8929L213.277 41.2081Z" fill="#E0E0E0"/>
<path d="M240.009 115.42L229.561 113.099L225.31 112.028L221.769 106.493C221.769 106.493 220.08 116.385 213.758 121.71C212.037 123.16 209.728 123.68 207.533 123.216C206.1 122.913 204.42 122.539 203.174 122.204C202.908 122.133 202.616 122.038 202.305 121.926C197.706 120.262 193.947 116.86 191.547 112.569C190.14 110.054 188.955 107.473 189.36 106.494L184.401 116.848L155.18 130.416L138.59 171.256L170.743 180.843L171.744 214.493L165.687 256.935L256.657 256.998L253.432 162.566" fill="#0AB247"/>
<path d="M216.493 151.972C216.492 151.985 216.293 151.989 215.92 151.985C215.512 151.975 214.972 151.962 214.302 151.946C212.871 151.895 210.889 151.824 208.519 151.739L208.406 151.735L208.401 151.62C208.303 149.089 208.187 146.093 208.062 142.888C207.911 138.273 207.774 134.097 207.673 131.027C207.638 129.538 207.609 128.319 207.588 127.432C207.585 127.033 207.582 126.708 207.58 126.454C207.581 126.23 207.587 126.112 207.597 126.112C207.607 126.111 207.621 126.229 207.639 126.451C207.655 126.706 207.676 127.029 207.701 127.427C207.745 128.314 207.805 129.531 207.878 131.019C208.001 134.087 208.168 138.262 208.352 142.876C208.461 146.083 208.563 149.079 208.648 151.61L208.53 151.491C210.898 151.619 212.878 151.725 214.309 151.803C214.978 151.847 215.516 151.882 215.924 151.909C216.295 151.937 216.493 151.959 216.493 151.972Z" fill="#263238"/>
<path d="M211.534 138.333C211.528 138.322 211.669 138.227 211.967 138.191C212.259 138.153 212.719 138.213 213.166 138.526C213.386 138.684 213.604 138.902 213.75 139.196C213.897 139.488 213.965 139.851 213.909 140.215C213.809 140.935 213.265 141.691 212.422 141.906C211.577 142.103 210.756 141.703 210.307 141.145C209.83 140.573 209.781 139.845 209.907 139.331C210.032 138.802 210.298 138.438 210.509 138.234C210.722 138.028 210.874 137.96 210.882 137.974C210.896 137.994 210.769 138.092 210.592 138.311C210.417 138.528 210.196 138.884 210.108 139.373C210.017 139.853 210.086 140.486 210.511 140.972C210.915 141.455 211.646 141.791 212.354 141.623C213.057 141.447 213.548 140.793 213.645 140.174C213.762 139.538 213.43 138.982 213.045 138.692C212.658 138.391 212.246 138.303 211.973 138.304C211.695 138.304 211.542 138.358 211.534 138.333Z" fill="#263238"/>
<path d="M210.56 126.476C210.553 126.466 210.696 126.345 211.017 126.266C211.332 126.187 211.843 126.188 212.375 126.468C212.637 126.609 212.905 126.818 213.105 127.119C213.303 127.418 213.426 127.807 213.406 128.213C213.381 129.011 212.856 129.911 211.938 130.203C211.013 130.469 210.086 130.021 209.611 129.386C209.362 129.067 209.236 128.684 209.208 128.328C209.184 127.97 209.255 127.639 209.364 127.362C209.588 126.803 209.96 126.462 210.238 126.295C210.52 126.126 210.703 126.1 210.707 126.113C210.716 126.137 210.549 126.2 210.302 126.389C210.058 126.574 209.738 126.915 209.556 127.435C209.372 127.941 209.367 128.663 209.822 129.221C210.248 129.772 211.078 130.152 211.855 129.923C212.626 129.684 213.108 128.896 213.14 128.201C213.194 127.481 212.743 126.91 212.277 126.648C211.807 126.372 211.338 126.337 211.038 126.379C210.731 126.418 210.571 126.501 210.56 126.476Z" fill="#263238"/>
<path d="M207.591 171.769C207.589 171.764 207.636 171.742 207.73 171.704C207.84 171.661 207.977 171.608 208.148 171.541C208.52 171.414 209.05 171.177 209.726 170.862C211.056 170.197 212.92 169.055 214.845 167.193C216.784 165.352 218.778 162.839 220.705 159.863C222.642 156.89 224.578 153.495 226.416 149.832C230.095 142.498 232.701 135.519 234.525 130.461C235.438 127.929 236.145 125.869 236.639 124.448C236.882 123.754 237.073 123.206 237.211 122.812C237.274 122.639 237.325 122.5 237.366 122.388C237.403 122.294 237.424 122.246 237.428 122.248C237.433 122.249 237.422 122.3 237.394 122.398C237.36 122.511 237.318 122.654 237.266 122.831C237.14 123.23 236.966 123.783 236.746 124.485C236.283 125.918 235.606 127.988 234.718 130.531C232.942 135.61 230.363 142.612 226.674 149.965C224.832 153.637 222.883 157.038 220.928 160.012C218.981 162.991 216.957 165.508 214.984 167.344C213.027 169.202 211.128 170.328 209.774 170.965C209.086 171.267 208.548 171.488 208.167 171.597C207.993 171.652 207.852 171.697 207.74 171.732C207.643 171.761 207.592 171.774 207.591 171.769Z" fill="#263238"/>
<path d="M226.761 160.562C226.999 160.562 232.537 160.178 232.537 160.178C232.537 160.178 230.251 164.253 227.87 165.773H223.024L226.761 160.562Z" fill="#FAFAFA"/>
<path d="M206.619 184.107C206.614 184.098 206.723 184.015 206.935 183.864C207.172 183.699 207.483 183.483 207.869 183.214C208.678 182.646 209.84 181.813 211.237 180.732C214.043 178.583 217.725 175.369 221.686 171.699C223.673 169.868 225.576 168.137 227.221 166.478C228.871 164.822 230.251 163.23 231.302 161.809C232.359 160.393 233.08 159.15 233.535 158.272C233.777 157.84 233.928 157.486 234.048 157.253C234.163 157.019 234.228 156.898 234.238 156.901C234.247 156.905 234.2 157.034 234.101 157.277C233.999 157.518 233.863 157.881 233.636 158.324C233.21 159.222 232.511 160.49 231.467 161.932C230.431 163.378 229.056 164.996 227.41 166.668C225.768 168.345 223.868 170.084 221.882 171.915C217.919 175.586 214.205 178.785 211.361 180.897C209.944 181.959 208.761 182.769 207.932 183.309C207.518 183.58 207.189 183.778 206.967 183.914C206.744 184.048 206.625 184.115 206.619 184.107Z" fill="#263238"/>
<path d="M191.027 246.446C191.023 246.443 191.046 246.399 191.096 246.314C191.156 246.217 191.231 246.095 191.323 245.945C191.527 245.621 191.839 245.153 192.256 244.56C193.094 243.376 194.385 241.719 196.087 239.768C199.515 235.887 204.318 230.597 209.609 224.739C214.914 218.904 219.715 213.622 223.209 209.779C224.948 207.888 226.36 206.351 227.355 205.268C227.837 204.753 228.217 204.347 228.493 204.052C228.615 203.925 228.714 203.823 228.794 203.741C228.863 203.672 228.901 203.638 228.904 203.641C228.908 203.645 228.878 203.685 228.817 203.761C228.742 203.848 228.65 203.957 228.537 204.092C228.27 204.395 227.904 204.815 227.439 205.345C226.46 206.443 225.071 208.001 223.361 209.918C219.883 213.776 215.104 219.078 209.824 224.936C204.527 230.774 199.731 236.058 196.242 239.904C194.522 241.834 193.212 243.467 192.348 244.627C191.918 245.208 191.592 245.665 191.372 245.977C191.27 246.12 191.188 246.236 191.121 246.33C191.063 246.41 191.031 246.448 191.027 246.446Z" fill="#263238"/>
<path d="M239.291 115.136C239.769 115.859 250.526 117.064 253.155 119.715C255.785 122.366 282.08 142.608 282.08 142.608L263.349 168.075L251.246 165.389L239.291 115.136Z" fill="#0AB247"/>
<path opacity="0.4" d="M278.911 140.164L257.887 166.864L263.347 168.075L282.077 142.608L278.911 140.164Z" fill="black"/>
<path d="M245.016 141.648C244.997 141.652 244.92 141.336 244.798 140.76C244.733 140.473 244.664 140.12 244.614 139.704C244.561 139.29 244.478 138.82 244.451 138.293C244.408 137.767 244.365 137.192 244.369 136.571C244.345 135.951 244.387 135.289 244.417 134.593C244.52 133.202 244.733 131.679 245.111 130.114C245.505 128.553 246.025 127.107 246.581 125.83C246.878 125.2 247.149 124.596 247.459 124.059C247.744 123.509 248.049 123.021 248.331 122.577C248.6 122.125 248.891 121.748 249.132 121.407C249.369 121.064 249.594 120.785 249.785 120.562C250.16 120.111 250.375 119.868 250.39 119.881C250.405 119.894 250.22 120.161 249.874 120.631C249.698 120.864 249.487 121.152 249.264 121.502C249.038 121.849 248.76 122.231 248.505 122.687C248.236 123.133 247.943 123.624 247.671 124.174C247.373 124.71 247.113 125.312 246.825 125.939C246.289 127.208 245.782 128.641 245.392 130.185C245.018 131.733 244.8 133.238 244.684 134.612C244.646 135.301 244.596 135.956 244.61 136.571C244.596 137.185 244.626 137.756 244.656 138.278C244.669 138.801 244.737 139.27 244.775 139.684C244.809 140.098 244.862 140.452 244.91 140.741C244.997 141.32 245.036 141.644 245.016 141.648Z" fill="#263238"/>
<path d="M253.428 162.568C253.354 162.6 252.313 160.282 251.102 157.392C249.892 154.501 248.97 152.132 249.044 152.101C249.117 152.069 250.159 154.387 251.37 157.278C252.58 160.168 253.501 162.537 253.428 162.568Z" fill="#263238"/>
<path d="M170.748 144.085C170.703 144.109 170.253 143.274 169.402 142.011C168.553 140.747 167.263 139.075 165.607 137.451C163.946 135.83 162.25 134.58 160.972 133.763C159.693 132.943 158.852 132.514 158.875 132.469C158.884 132.451 159.101 132.543 159.487 132.725C159.875 132.904 160.421 133.196 161.079 133.587C162.396 134.365 164.131 135.602 165.809 137.241C167.484 138.883 168.762 140.594 169.573 141.897C169.98 142.548 170.286 143.089 170.475 143.475C170.667 143.859 170.765 144.075 170.748 144.085Z" fill="#263238"/>
<path opacity="0.4" d="M138.591 171.255L139.884 168.075L175.456 177.837L174.046 181.827L138.591 171.255Z" fill="black"/>
<path d="M233.542 158.681H247.084V164.317L229.76 164.206C229.76 164.206 232.437 160.936 233.542 158.681Z" fill="#FAFAFA"/>
<g opacity="0.2">
<path d="M185.246 118.08C185.736 122.459 186.268 126.972 188.415 130.811C190.563 134.649 194.767 137.672 199.092 137.028C201.977 136.599 204.421 134.653 206.386 132.48C208.35 130.307 209.995 127.835 212.139 125.842C213.485 127.2 214.844 128.57 216.458 129.588C218.071 130.606 219.983 131.257 221.872 131.028C223.762 130.798 224.803 130.045 225.4 128.223C223.382 128.854 222.273 128.76 220.268 128.367C218.147 127.952 216.089 127.057 214.192 125.552C213.011 124.615 212.586 123.208 211.086 123.295C209.7 123.376 208.615 124.482 207.701 125.535C206.304 127.147 204.536 128.899 202.873 130.229C201.21 131.558 199.587 132.457 197.465 132.41C193.961 132.333 191.094 129.56 189.16 126.614C187.383 123.905 186.061 120.893 185.269 117.744" fill="black"/>
</g>
<path d="M226.234 112.622C226.244 112.62 226.264 112.728 226.293 112.934C226.32 113.141 226.365 113.444 226.401 113.838C226.484 114.624 226.568 115.766 226.601 117.181C226.674 120.005 226.463 123.938 225.561 128.166C225.555 128.197 225.548 128.227 225.543 128.256L225.524 128.345L225.437 128.367C223.332 128.894 221.223 128.707 219.44 128.207C217.646 127.709 216.139 126.928 214.999 126.109C213.857 125.289 213.045 124.474 212.571 123.847C212.31 123.553 212.166 123.28 212.045 123.113C211.932 122.94 211.878 122.847 211.886 122.841C211.949 122.777 212.806 124.369 215.115 125.939C216.253 126.725 217.746 127.474 219.51 127.948C221.263 128.425 223.325 128.595 225.364 128.084L225.259 128.195C225.265 128.167 225.271 128.137 225.278 128.106C226.174 123.904 226.417 119.999 226.396 117.185C226.39 115.776 226.337 114.636 226.289 113.849C226.267 113.481 226.25 113.182 226.235 112.942C226.225 112.732 226.224 112.623 226.234 112.622Z" fill="#263238"/>
<path d="M209.33 123.694C209.339 123.699 209.277 123.815 209.152 124.03C209.025 124.245 208.823 124.552 208.535 124.928C207.965 125.684 207.035 126.693 205.798 127.838C205.18 128.412 204.486 129.021 203.735 129.664C203.357 129.985 202.976 130.321 202.556 130.654C202.133 130.978 201.673 131.279 201.179 131.548C200.192 132.084 199.049 132.478 197.821 132.576C196.596 132.685 195.284 132.412 194.15 131.758C193.007 131.114 192.085 130.215 191.27 129.313C190.461 128.402 189.737 127.475 189.103 126.552C187.828 124.708 186.916 122.896 186.267 121.333C185.627 119.764 185.244 118.443 185.019 117.524C184.904 117.065 184.832 116.705 184.788 116.459C184.742 116.215 184.723 116.085 184.733 116.083C184.743 116.081 184.781 116.206 184.845 116.446C184.908 116.687 184.997 117.042 185.128 117.495C185.386 118.401 185.796 119.704 186.456 121.251C187.125 122.793 188.047 124.58 189.322 126.397C189.956 127.307 190.678 128.222 191.481 129.12C192.287 130.008 193.192 130.883 194.291 131.502C195.382 132.13 196.622 132.389 197.8 132.29C198.98 132.199 200.09 131.825 201.053 131.31C201.536 131.051 201.986 130.761 202.402 130.449C202.81 130.13 203.2 129.793 203.58 129.478C204.337 128.843 205.036 128.246 205.66 127.684C206.91 126.563 207.855 125.583 208.447 124.855C208.746 124.493 208.961 124.199 209.104 123.997C209.243 123.794 209.321 123.689 209.33 123.694Z" fill="#263238"/>
<path d="M197.327 188.166L201.616 181.863C201.616 181.863 204.566 171.523 204.165 170.081C203.765 168.64 202.461 163.246 202.769 163.183C203.078 163.12 206.289 161.913 208.03 166.236C209.114 168.928 209.471 172.473 209.585 174.764C209.645 175.969 210.75 176.832 211.922 176.59C214.89 175.978 219.826 175.04 220.998 175.323C222.701 175.734 224.226 177.924 224.374 178.656C224.523 179.388 223.346 181.045 223.346 181.045C223.346 181.045 224.794 181.792 225.239 182.92C225.299 183.072 225.351 183.223 225.395 183.368C225.677 184.288 225.442 185.288 224.799 185.999L224.345 186.501C224.345 186.501 226.15 187 226.374 188.043C226.598 189.085 226.312 190.342 226.312 190.342L224.618 192.107C224.618 192.107 225.409 192.815 225.497 193.777C225.583 194.739 223.041 197.114 223.041 197.114L212.127 201.058L207.797 202.171L197.327 188.166Z" fill="#B78876"/>
<path d="M223.38 181.058C223.392 181.14 221.688 181.452 219.599 181.882C217.508 182.31 215.82 182.694 215.799 182.613C215.789 182.575 216.199 182.429 216.875 182.237C217.55 182.045 218.492 181.811 219.541 181.596C220.59 181.381 221.548 181.225 222.243 181.136C222.94 181.045 223.374 181.019 223.38 181.058Z" fill="#AA6550"/>
<path d="M224.375 186.495C224.399 186.572 223.106 187.038 221.487 187.535C219.869 188.033 218.538 188.374 218.515 188.297C218.492 188.219 219.785 187.754 221.403 187.256C223.021 186.759 224.352 186.418 224.375 186.495Z" fill="#AA6550"/>
<path d="M225.03 191.866C225.062 191.94 223.689 192.616 221.963 193.377C220.236 194.139 218.811 194.695 218.779 194.621C218.747 194.547 220.12 193.871 221.846 193.11C223.572 192.348 224.998 191.792 225.03 191.866Z" fill="#AA6550"/>
<path d="M172.178 227.142L212.32 199.995L202.194 181.501L165.554 200.495L169.711 180.537L144.847 173.123L138.643 207.271C137.683 222.466 149.771 234.734 164.347 230.744C167.134 229.982 169.78 228.765 172.178 227.142Z" fill="#B78876"/>
<path d="M160.254 211.208C160.236 211.212 160.181 211.033 160.116 210.7C160.051 210.367 159.989 209.877 159.977 209.269C159.946 208.058 160.181 206.338 161.012 204.661C161.842 202.982 163.063 201.758 164.041 201.055C164.531 200.699 164.956 200.454 165.259 200.306C165.562 200.158 165.738 200.095 165.746 200.112C165.77 200.158 165.096 200.479 164.165 201.22C163.238 201.952 162.077 203.163 161.271 204.791C160.466 206.419 160.203 208.082 160.182 209.27C160.155 210.464 160.306 211.2 160.254 211.208Z" fill="#AA6550"/>
<path d="M263.336 168.077C263.587 167.732 291.926 185.134 291.926 185.134L301.007 226.855L314.081 231.691C314.081 231.691 318.163 185.264 315.055 178.035C311.948 170.805 280.464 144.81 280.464 144.81L263.336 168.077Z" fill="#B78876"/>
<path d="M298.113 181.932C298.173 181.969 297.253 183.238 295.656 184.265C294.065 185.306 292.538 185.623 292.53 185.552C292.502 185.466 293.954 185.032 295.499 184.019C297.053 183.022 298.046 181.87 298.113 181.932Z" fill="#AA6550"/>
<path d="M229.257 168.17L231.475 208.209L276.762 205.124L275.391 175.317L268.799 166.37L229.257 168.17Z" fill="#263238"/>
<path d="M218.958 209.102C219.096 209.871 222.94 246.137 222.94 246.137L290.34 241.411L301.748 239.872L296.488 206.1L288.43 204.156L218.958 209.102Z" fill="#0AB247"/>
<path opacity="0.4" d="M288.43 204.156L218.958 209.101C219.096 209.87 222.94 246.136 222.94 246.136L293.111 241.216L288.43 204.156Z" fill="black"/>
<path d="M269.973 205.587L231.475 208.209L229.257 168.17L268.799 166.37L269.973 205.587Z" fill="#455A64"/>
<path d="M243.611 167.516L244.422 179.855L246.482 178.667L247.625 179.855L249.042 178.667L251.234 179.855V167.168L243.611 167.516Z" fill="#263238"/>
<path d="M259.694 206.428L257.059 176.376L282.793 183.526L285.274 204.267L259.694 206.428Z" fill="#0AB247"/>
<path d="M282.795 183.527C282.801 183.533 282.746 183.606 282.635 183.743C282.505 183.898 282.341 184.093 282.138 184.334C281.674 184.867 281.036 185.602 280.246 186.511C278.593 188.38 276.307 190.964 273.67 193.946L273.569 194.059L273.465 193.948C272.366 192.787 271.184 191.539 269.962 190.248C266.392 186.444 263.162 183.002 260.795 180.481C259.649 179.24 258.715 178.228 258.041 177.498C257.737 177.159 257.492 176.886 257.303 176.677C257.137 176.487 257.053 176.384 257.06 176.377C257.067 176.37 257.165 176.459 257.346 176.636C257.544 176.837 257.802 177.096 258.123 177.42C258.813 178.133 259.771 179.124 260.944 180.338C263.326 182.844 266.578 186.266 270.172 190.046C271.391 191.34 272.57 192.591 273.667 193.754L273.462 193.757C276.13 190.803 278.443 188.243 280.115 186.392C280.93 185.505 281.589 184.79 282.067 184.27C282.284 184.042 282.459 183.857 282.598 183.71C282.722 183.585 282.789 183.522 282.795 183.527Z" fill="#263238"/>
<path d="M268.365 189.097C268.435 189.136 266.601 192.683 264.268 197.019C261.935 201.357 259.987 204.841 259.917 204.803C259.847 204.764 261.68 201.218 264.013 196.88C266.346 192.544 268.295 189.059 268.365 189.097Z" fill="#263238"/>
<path d="M284.681 204.267C284.612 204.308 282.828 201.435 280.697 197.851C278.565 194.265 276.893 191.326 276.962 191.284C277.03 191.243 278.813 194.115 280.945 197.701C283.077 201.285 284.749 204.225 284.681 204.267Z" fill="#263238"/>
<path d="M273.518 205.254L271.84 186.116L288.228 190.67L289.807 203.878L273.518 205.254Z" fill="#0AB247"/>
<path opacity="0.4" d="M273.518 205.254L271.84 186.116L288.228 190.67L289.807 203.878L273.518 205.254Z" fill="white"/>
<path d="M288.227 190.672C288.24 190.683 288.097 190.867 287.822 191.196C287.513 191.558 287.114 192.025 286.628 192.594C285.559 193.809 284.115 195.451 282.454 197.34L282.354 197.454L282.249 197.343C281.548 196.603 280.795 195.809 280.017 194.988C277.729 192.566 275.67 190.363 274.19 188.757C273.48 187.978 272.893 187.334 272.448 186.846C272.042 186.39 271.824 186.132 271.838 186.118C271.853 186.104 272.098 186.336 272.53 186.768C272.992 187.239 273.601 187.862 274.339 188.615C275.857 190.183 277.939 192.364 280.227 194.786C281.002 195.61 281.752 196.406 282.451 197.148L282.246 197.151C283.938 195.289 285.409 193.671 286.496 192.474C287.007 191.928 287.426 191.479 287.751 191.132C288.048 190.823 288.215 190.661 288.227 190.672Z" fill="#263238"/>
<path d="M279.04 194.217C279.111 194.256 277.963 196.526 276.477 199.288C274.991 202.05 273.73 204.258 273.66 204.219C273.59 204.18 274.737 201.91 276.222 199.149C277.708 196.387 278.97 194.179 279.04 194.217Z" fill="#263238"/>
<path d="M289.429 203.876C289.361 203.917 288.205 202.1 286.847 199.817C285.49 197.534 284.445 195.65 284.514 195.608C284.582 195.567 285.739 197.384 287.096 199.667C288.453 201.95 289.498 203.834 289.429 203.876Z" fill="#263238"/>
<path d="M283.964 189.861V191.401L286.357 191.681L286.483 190.506L283.964 189.861Z" fill="white"/>
<path d="M275.514 182.057C275.514 182.222 275.514 184.307 275.514 184.307L280.031 185.059L280.281 183.346L275.514 182.057Z" fill="white"/>
<path d="M257.877 217.619L257.654 206.427L248.649 207.041L249.614 218.407L257.877 217.619Z" fill="#0AB247"/>
<path d="M287.205 223.498L272.097 224.942L273.364 238.416L288.473 236.971L287.205 223.498Z" fill="#FAFAFA"/>
<path d="M288.481 236.986C288.476 236.982 288.463 236.894 288.443 236.728C288.422 236.544 288.394 236.302 288.36 235.999C288.29 235.344 288.193 234.422 288.07 233.258C287.832 230.891 287.495 227.545 287.091 223.525L287.224 223.636C282.872 224.059 277.681 224.563 272.119 225.102C272.089 225.137 272.365 224.802 272.249 224.945L272.249 224.949L272.25 224.956L272.251 224.971L272.254 224.999L272.259 225.056L272.27 225.171L272.291 225.4L272.334 225.857C272.363 226.16 272.391 226.463 272.419 226.764C272.476 227.367 272.532 227.965 272.587 228.557C272.697 229.74 272.805 230.9 272.91 232.031C273.119 234.291 273.316 236.435 273.498 238.418L273.359 238.302C277.84 237.901 281.598 237.564 284.262 237.325C285.576 237.214 286.62 237.126 287.359 237.063C287.704 237.036 287.978 237.016 288.186 236.999C288.375 236.986 288.476 236.982 288.481 236.986C288.486 236.991 288.396 237.004 288.217 237.026C288.016 237.049 287.751 237.08 287.417 237.118C286.687 237.196 285.655 237.306 284.356 237.444C281.675 237.716 277.893 238.1 273.384 238.558L273.257 238.571L273.244 238.442C273.054 236.459 272.848 234.316 272.631 232.056C272.524 230.926 272.413 229.766 272.301 228.584C272.245 227.992 272.188 227.395 272.132 226.792C272.103 226.491 272.075 226.188 272.046 225.884L272.003 225.427L271.981 225.198L271.971 225.084L271.965 225.027L271.962 224.998L271.961 224.983L271.961 224.976L271.96 224.973C271.843 225.114 272.119 224.776 272.092 224.811C277.656 224.288 282.848 223.8 287.202 223.389L287.325 223.378L287.336 223.5C287.691 227.558 287.987 230.935 288.196 233.324C288.291 234.479 288.367 235.393 288.42 236.044C288.442 236.338 288.459 236.572 288.472 236.752C288.483 236.911 288.486 236.99 288.481 236.986Z" fill="#263238"/>
<path d="M286.026 226.741C286.034 226.821 283.393 227.167 280.127 227.514C276.86 227.861 274.206 228.077 274.198 227.996C274.189 227.916 276.83 227.57 280.097 227.223C283.362 226.876 286.017 226.661 286.026 226.741Z" fill="#263238"/>
<path d="M285.941 229.03C285.949 229.068 285.33 229.232 284.317 229.435C283.305 229.639 281.896 229.875 280.331 230.061C278.765 230.246 277.34 230.345 276.308 230.382C275.276 230.421 274.637 230.405 274.635 230.367C274.634 230.325 275.269 230.267 276.295 230.176C277.321 230.086 278.737 229.955 280.297 229.771C281.856 229.586 283.263 229.383 284.282 229.232C285.301 229.081 285.933 228.989 285.941 229.03Z" fill="#263238"/>
<path d="M286.578 234.036C286.585 234.074 285.967 234.238 284.954 234.441C283.942 234.645 282.533 234.881 280.968 235.067C279.401 235.252 277.977 235.351 276.945 235.389C275.913 235.427 275.274 235.412 275.272 235.373C275.271 235.331 275.906 235.273 276.932 235.183C277.958 235.092 279.374 234.961 280.934 234.777C282.493 234.592 283.901 234.389 284.919 234.238C285.938 234.087 286.57 233.995 286.578 234.036Z" fill="#263238"/>
<path d="M285.818 231.473C285.829 231.552 283.363 231.974 280.31 232.414C277.256 232.854 274.772 233.147 274.76 233.066C274.749 232.987 277.215 232.565 280.269 232.125C283.322 231.685 285.807 231.393 285.818 231.473Z" fill="#263238"/>
<path d="M299.154 252.331C299.154 252.331 311.594 244.035 312.551 239.791C313.508 235.547 314.082 231.688 314.082 231.688L300.792 226.138L302.11 230.966C302.11 230.966 297.344 233.823 296.858 237.283C296.534 239.591 290.374 243.537 290.374 243.537C289.327 242.263 287.735 241.577 286.099 241.694L280.922 242.062L284.418 250.017L299.154 252.331Z" fill="#B78876"/>
<path d="M304.019 240.961C304.025 240.978 303.82 241.078 303.431 241.202C303.043 241.332 302.464 241.46 301.783 241.686C301.094 241.898 300.37 242.345 299.623 242.95C298.882 243.551 298.013 244.224 296.965 244.652C294.878 245.558 292.734 245.498 291.323 245.129C290.97 245.036 290.637 244.957 290.379 244.776C290.116 244.611 289.98 244.304 290.035 244.081C290.07 243.859 290.206 243.718 290.315 243.677C290.425 243.635 290.487 243.661 290.485 243.667C290.486 243.68 290.425 243.679 290.341 243.73C290.258 243.78 290.161 243.907 290.147 244.096C290.12 244.285 290.232 244.501 290.468 244.64C290.696 244.784 291.018 244.85 291.368 244.928C292.759 245.237 294.832 245.261 296.852 244.384C297.868 243.967 298.7 243.333 299.461 242.738C300.218 242.14 301.004 241.68 301.721 241.49C302.428 241.285 303.008 241.189 303.401 241.093C303.796 241.003 304.012 240.94 304.019 240.961Z" fill="#AA6550"/>
<path d="M295.392 247.395C295.368 247.437 294.753 247.068 293.694 246.628C292.639 246.189 291.116 245.711 289.38 245.545C288.944 245.498 288.516 245.485 288.104 245.475L288.026 245.474L287.985 245.41C287.214 244.189 286.338 243.262 285.67 242.656C285.001 242.046 284.554 241.731 284.577 241.697C284.587 241.683 284.71 241.746 284.922 241.88C285.135 242.014 285.435 242.225 285.79 242.515C286.501 243.092 287.424 244.013 288.224 245.255L288.105 245.19C288.526 245.195 288.963 245.207 289.407 245.255C291.18 245.424 292.727 245.944 293.776 246.439C294.304 246.683 294.71 246.923 294.986 247.093C295.259 247.27 295.403 247.378 295.392 247.395Z" fill="#AA6550"/>
<path d="M298.756 245.115C298.781 245.197 297.914 245.513 296.936 246.078C295.954 246.635 295.241 247.225 295.184 247.161C295.131 247.108 295.778 246.402 296.793 245.824C297.805 245.241 298.739 245.042 298.756 245.115Z" fill="#AA6550"/>
<path d="M305.5 230.199C305.489 230.287 304.637 230.181 303.642 230.45C302.642 230.705 301.951 231.217 301.898 231.146C301.843 231.097 302.498 230.443 303.568 230.167C304.636 229.881 305.525 230.129 305.5 230.199Z" fill="#AA6550"/>
</g>
<defs>
<filter id="filter0_b_10333_64011" x="12" y="20" width="52" height="52" filterUnits="userSpaceOnUse" color-interpolation-filters="sRGB">
<feFlood flood-opacity="0" result="BackgroundImageFix"/>
<feGaussianBlur in="BackgroundImageFix" stdDeviation="2"/>
<feComposite in2="SourceAlpha" operator="in" result="effect1_backgroundBlur_10333_64011"/>
<feBlend mode="normal" in="SourceGraphic" in2="effect1_backgroundBlur_10333_64011" result="shape"/>
</filter>
<clipPath id="clip0_10333_64011">
<rect width="430" height="257" fill="white"/>
</clipPath>
</defs>
</svg>
