<svg width="24" height="24" viewBox="0 0 24 24" fill="none" xmlns="http://www.w3.org/2000/svg">
<path fill-rule="evenodd" clip-rule="evenodd" d="M21.4666 2.52861C20.9624 2.02441 20.2042 1.74322 19.4556 1.57129C18.6822 1.39367 17.797 1.30646 16.927 1.27037C15.1845 1.19808 13.4039 1.32748 12.4938 1.41111C11.9259 1.46329 11.4014 1.69565 10.9792 2.05852C7.82691 4.76784 4.95719 7.57633 2.21152 10.6428C0.955208 12.0459 0.941883 14.1409 2.07318 15.602C3.93892 18.0117 5.98353 20.0563 8.39321 21.922C9.85434 23.0533 11.9493 23.04 13.3524 21.7837C16.4189 19.038 19.2274 16.1683 21.9367 13.016C22.2996 12.5938 22.532 12.0694 22.5841 11.5014C22.6678 10.5913 22.7972 8.8108 22.7249 7.06828C22.6888 6.19828 22.6016 5.31301 22.424 4.53967C22.252 3.79105 21.9708 3.03281 21.4666 2.52861ZM10.9922 7.99921C10.4399 7.99921 9.99218 8.44692 9.99218 8.99921C9.99218 9.55149 10.4399 9.99921 10.9922 9.99921H11.0072C11.5594 9.99921 12.0072 9.55149 12.0072 8.99921C12.0072 8.44692 11.5594 7.99921 11.0072 7.99921H10.9922ZM10.9959 15.9992C10.4436 15.9992 9.99589 16.4469 9.99589 16.9992C9.99589 17.5515 10.4436 17.9992 10.9959 17.9992H11.0109C11.5632 17.9992 12.0109 17.5515 12.0109 16.9992C12.0109 16.4469 11.5632 15.9992 11.0109 15.9992H10.9959ZM5.99609 12.9992C5.99609 12.4469 6.44381 11.9992 6.99609 11.9992H14.9961C15.5484 11.9992 15.9961 12.4469 15.9961 12.9992C15.9961 13.5515 15.5484 13.9992 14.9961 13.9992H6.99609C6.44381 13.9992 5.99609 13.5515 5.99609 12.9992ZM17.4961 4.99921C18.3245 4.99921 18.9961 5.67078 18.9961 6.49921C18.9961 7.32764 18.3245 7.99921 17.4961 7.99921C16.6677 7.99921 15.9961 7.32764 15.9961 6.49921C15.9961 5.67078 16.6677 4.99921 17.4961 4.99921Z" fill="#E92D53"/>
</svg>
