<svg width="65" height="65" viewBox="0 0 65 65" fill="none" xmlns="http://www.w3.org/2000/svg">
<circle cx="32.5" cy="32.5" r="32.5" fill="#0AB247"/>
<path fill-rule="evenodd" clip-rule="evenodd" d="M30.3262 21.1043C30.8115 20.734 31.3449 20.4585 31.9997 20.4585C32.6544 20.4585 33.1878 20.734 33.6731 21.1043C34.1278 21.4512 34.6292 21.9527 35.2159 22.5395L35.2572 22.5807C35.8575 23.181 36.3809 23.4175 37.1889 23.4175C37.2899 23.4175 37.4179 23.4138 37.5626 23.4097C37.9298 23.3993 38.4047 23.3859 38.8195 23.4209C39.4281 23.4723 40.1903 23.6358 40.7715 24.2122C41.3572 24.7931 41.5247 25.5583 41.5777 26.1707C41.6138 26.5893 41.6004 27.0677 41.59 27.4376C41.5859 27.5818 41.5823 27.7097 41.5823 27.8109C41.5823 28.3369 41.6408 28.6306 41.7422 28.8626C41.8462 29.1009 42.0299 29.3534 42.4192 29.7426L42.4605 29.7839C43.0472 30.3706 43.5486 30.8721 43.8955 31.3266C44.2659 31.812 44.5413 32.3454 44.5413 33.0002C44.5413 33.6548 44.2659 34.1882 43.8955 34.6736C43.5486 35.1284 43.047 35.63 42.4601 36.2168L42.4191 36.2577C42.0299 36.6469 41.8462 36.8994 41.7422 37.1376C41.6408 37.3697 41.5823 37.6635 41.5823 38.1894C41.5823 38.2905 41.5859 38.4182 41.59 38.5624C41.6004 38.9322 41.6138 39.411 41.5777 39.8297C41.5247 40.442 41.3572 41.2073 40.7714 41.7882C40.1901 42.3645 39.428 42.528 38.8195 42.5793C38.4047 42.6144 37.9298 42.6009 37.5626 42.5905C37.4179 42.5864 37.2899 42.5828 37.1889 42.5828C36.6742 42.5828 36.3848 42.6346 36.1571 42.7285C35.9296 42.8225 35.6862 42.9906 35.3198 43.357C35.2415 43.4354 35.1382 43.5459 35.0192 43.6735C34.751 43.9611 34.4022 44.3349 34.0765 44.6197C33.582 45.0518 32.8729 45.5418 31.9997 45.5418C31.1265 45.5418 30.4173 45.0518 29.923 44.6197C29.5972 44.3349 29.2484 43.9611 28.9801 43.6735C28.8612 43.5461 28.7578 43.4353 28.6796 43.3571C28.3131 42.9906 28.0697 42.8225 27.8422 42.7285C27.6145 42.6346 27.3252 42.5828 26.8104 42.5828C26.7094 42.5828 26.5814 42.5864 26.4368 42.5905C26.0695 42.6009 25.5946 42.6144 25.1798 42.5793C24.5714 42.528 23.8092 42.3645 23.228 41.7882C22.6422 41.2073 22.4746 40.442 22.4217 39.8297C22.3855 39.411 22.3989 38.9325 22.4093 38.5627C22.4134 38.4184 22.417 38.2906 22.417 38.1894C22.417 37.6634 22.3586 37.3697 22.2572 37.1376C22.1531 36.8994 21.9695 36.6469 21.5802 36.2577L21.5393 36.2168C20.9524 35.6299 20.4508 35.1284 20.1038 34.6736C19.7335 34.1882 19.458 33.6548 19.458 33.0002C19.458 32.3454 19.7335 31.812 20.1038 31.3266C20.4507 30.872 20.9522 30.3706 21.539 29.7839L21.5802 29.7426C22.1807 29.1422 22.417 28.6187 22.417 27.8109C22.417 27.7099 22.4134 27.5819 22.4093 27.4373C22.3989 27.07 22.3854 26.5951 22.4204 26.1803C22.4718 25.5718 22.6353 24.8096 23.2117 24.2284C23.7925 23.6427 24.5578 23.4751 25.1702 23.4221C25.5888 23.3859 26.0673 23.3994 26.4371 23.4098C26.5814 23.4139 26.7092 23.4175 26.8104 23.4175C27.6182 23.4175 28.1417 23.1811 28.7421 22.5807L28.7834 22.5394C29.3701 21.9527 29.8716 21.4512 30.3262 21.1043ZM27.6747 37.3251C27.2191 36.8695 27.2191 36.1308 27.6747 35.6752L34.6747 28.6752C35.1303 28.2196 35.869 28.2196 36.3246 28.6752C36.7802 29.1308 36.7802 29.8695 36.3246 30.3251L29.3246 37.3251C28.869 37.7807 28.1303 37.7807 27.6747 37.3251ZM28.5122 28.3335L28.4997 28.3335C27.8553 28.3335 27.333 28.8558 27.333 29.5002C27.333 30.1445 27.8553 30.6668 28.4997 30.6668L28.5122 30.6668C29.1566 30.6668 29.6789 30.1445 29.6789 29.5002C29.6789 28.8558 29.1566 28.3335 28.5122 28.3335ZM35.4871 35.3335C34.8428 35.3335 34.3204 35.8558 34.3204 36.5002C34.3204 37.1445 34.8428 37.6668 35.4871 37.6668L35.4997 37.6668C36.144 37.6668 36.6663 37.1445 36.6663 36.5002C36.6663 35.8558 36.144 35.3335 35.4997 35.3335L35.4871 35.3335Z" fill="white"/>
</svg>
