<svg width="24" height="24" viewBox="0 0 24 24" fill="none" xmlns="http://www.w3.org/2000/svg">
<path fill-rule="evenodd" clip-rule="evenodd" d="M1.24609 11.9992C1.24609 6.06215 6.05903 1.24921 11.9961 1.24921C17.9332 1.24921 22.7461 6.06215 22.7461 11.9992C22.7461 17.9363 17.9332 22.7492 11.9961 22.7492C6.05903 22.7492 1.24609 17.9363 1.24609 11.9992ZM11.9961 8.49921C11.4438 8.49921 10.9961 8.94693 10.9961 9.49921C10.9961 10.0515 10.5484 10.4992 9.99609 10.4992C9.4438 10.4992 8.99609 10.0515 8.99609 9.49921C8.99609 7.84236 10.3392 6.49921 11.9961 6.49921C13.653 6.49921 14.9961 7.84236 14.9961 9.49921C14.9961 10.0949 14.8214 10.6529 14.5202 11.1211C14.3394 11.402 14.1298 11.6676 13.9432 11.8996L13.841 12.0262C13.6865 12.2174 13.5493 12.3873 13.4221 12.5621C13.106 12.9965 12.9961 13.2762 12.9961 13.4992C12.9961 14.0515 12.5484 14.4992 11.9961 14.4992C11.4438 14.4992 10.9961 14.0515 10.9961 13.4992C10.9961 12.6176 11.4289 11.9022 11.8049 11.3854C11.9648 11.1657 12.1402 10.9486 12.2954 10.7568L12.385 10.6458C12.57 10.4159 12.7202 10.2224 12.8383 10.0389C12.9381 9.88375 12.9961 9.69978 12.9961 9.49921C12.9961 8.94693 12.5484 8.49921 11.9961 8.49921ZM11.9916 15.4992C11.4418 15.4992 10.9961 15.9469 10.9961 16.4992C10.9961 17.0515 11.4418 17.4992 11.9916 17.4992H12.0006C12.5504 17.4992 12.9961 17.0515 12.9961 16.4992C12.9961 15.9469 12.5504 15.4992 12.0006 15.4992H11.9916Z" fill="#FAB11D"/>
</svg>
