<svg width="24" height="24" viewBox="0 0 24 24" fill="none" xmlns="http://www.w3.org/2000/svg">
<path fill-rule="evenodd" clip-rule="evenodd" d="M12.0015 1.24921C8.17538 1.24921 4.52505 3.51224 2.99714 7.08389C1.57518 10.4078 2.34496 13.2365 3.94771 15.6587C5.26177 17.6446 7.17835 19.417 8.90742 21.016L8.90824 21.0167C9.23768 21.3214 9.56031 21.6198 9.87066 21.9121L9.87231 21.9137C10.4473 22.452 11.2112 22.7492 12.0015 22.7492C12.7919 22.7492 13.5558 22.452 14.1308 21.9136C14.4243 21.6388 14.7286 21.3584 15.039 21.0724C16.7869 19.4619 18.7304 17.6712 20.0582 15.6601C21.6591 13.2354 22.4261 10.4037 21.0059 7.08389C19.478 3.51224 15.8277 1.24921 12.0015 1.24921ZM12 6.99921C9.79086 6.99921 8 8.79007 8 10.9992C8 13.2083 9.79086 14.9992 12 14.9992C14.2091 14.9992 16 13.2083 16 10.9992C16 8.79007 14.2091 6.99921 12 6.99921Z" fill="#0AB247"/>
</svg>
