<svg width="50" height="50" viewBox="0 0 50 50" fill="none" xmlns="http://www.w3.org/2000/svg">
<path d="M28.9062 19.5312C31.0636 19.5312 32.8125 17.7824 32.8125 15.625C32.8125 13.4676 31.0636 11.7188 28.9062 11.7188C26.7489 11.7188 25 13.4676 25 15.625C25 17.7824 26.7489 19.5312 28.9062 19.5312Z" fill="#80D25B"/>
<path fill-rule="evenodd" clip-rule="evenodd" d="M7.8125 15.625H32.0312V46.875H7.8125V15.625Z" fill="#5EA7FF"/>
<path d="M19.5312 40.625C22.1201 40.625 24.2188 38.5263 24.2188 35.9375C24.2188 33.3487 22.1201 31.25 19.5312 31.25C16.9424 31.25 14.8438 33.3487 14.8438 35.9375C14.8438 38.5263 16.9424 40.625 19.5312 40.625Z" fill="#F3B156"/>
<path d="M11.7188 19.5312C13.8761 19.5312 15.625 17.7824 15.625 15.625C15.625 13.4676 13.8761 11.7188 11.7188 11.7188C9.56139 11.7188 7.8125 13.4676 7.8125 15.625C7.8125 17.7824 9.56139 19.5312 11.7188 19.5312Z" fill="#22BA8E"/>
<path d="M38.2812 13.2812C40.4386 13.2812 42.1875 11.5324 42.1875 9.375C42.1875 7.21764 40.4386 5.46875 38.2812 5.46875C36.1239 5.46875 34.375 7.21764 34.375 9.375C34.375 11.5324 36.1239 13.2812 38.2812 13.2812Z" fill="#80D25B"/>
<path d="M16.4062 16.4062C18.9951 16.4062 21.0938 14.3076 21.0938 11.7188C21.0938 9.12992 18.9951 7.03125 16.4062 7.03125C13.8174 7.03125 11.7188 9.12992 11.7188 11.7188C11.7188 14.3076 13.8174 16.4062 16.4062 16.4062Z" fill="#80D25B"/>
<path d="M32.0312 15.625C34.6201 15.625 36.7188 13.5263 36.7188 10.9375C36.7188 8.34867 34.6201 6.25 32.0312 6.25C29.4424 6.25 27.3438 8.34867 27.3438 10.9375C27.3438 13.5263 29.4424 15.625 32.0312 15.625Z" fill="#22BA8E"/>
<path d="M23.4375 14.0625C26.0263 14.0625 28.125 11.9638 28.125 9.375C28.125 6.78617 26.0263 4.6875 23.4375 4.6875C20.8487 4.6875 18.75 6.78617 18.75 9.375C18.75 11.9638 20.8487 14.0625 23.4375 14.0625Z" fill="#80D25B"/>
<path d="M21.875 17.9688C24.0324 17.9688 25.7812 16.2199 25.7812 14.0625C25.7812 11.9051 24.0324 10.1562 21.875 10.1562C19.7176 10.1562 17.9688 11.9051 17.9688 14.0625C17.9688 16.2199 19.7176 17.9688 21.875 17.9688Z" fill="#22BA8E"/>
<path d="M27.3438 12.5C29.5011 12.5 31.25 10.7511 31.25 8.59375C31.25 6.43639 29.5011 4.6875 27.3438 4.6875C25.1864 4.6875 23.4375 6.43639 23.4375 8.59375C23.4375 10.7511 25.1864 12.5 27.3438 12.5Z" fill="#80D25B"/>
<path fill-rule="evenodd" clip-rule="evenodd" d="M32.0312 15.625L41.4062 8.59375V38.2812L32.0312 46.875V15.625Z" fill="#5B68C0"/>
<path fill-rule="evenodd" clip-rule="evenodd" d="M32.0312 15.625L41.4062 7.03125L45.3125 14.0625L36.7188 24.2188L32.0312 15.625Z" fill="#5EA7FF"/>
<path fill-rule="evenodd" clip-rule="evenodd" d="M7.8125 15.625H32.0312L28.9062 25H4.6875L7.8125 15.625Z" fill="#B4DFFB"/>
</svg>
