<svg width="49" height="37" viewBox="0 0 49 37" fill="none" xmlns="http://www.w3.org/2000/svg">
<rect width="49" height="37" rx="3" fill="black"/>
<g clip-path="url(#clip0_10441_91720)">
<path d="M15.8857 28.8781V27.4876C15.8857 26.9543 15.5611 26.6068 15.0284 26.6068C14.7486 26.6068 14.4492 26.6997 14.2405 26.9985C14.0782 26.7433 13.8488 26.6068 13.4991 26.6068C13.369 26.6012 13.2397 26.6279 13.1225 26.6845C13.0053 26.7411 12.904 26.826 12.8276 26.9313V26.6516H12.3872V28.8764H12.8276V27.6034C12.8276 27.2117 13.0593 27.0242 13.3838 27.0242C13.7084 27.0242 13.8936 27.2329 13.8936 27.6034V28.8781H14.334V27.6034C14.334 27.2117 14.5656 27.0242 14.8902 27.0242C15.2147 27.0242 15.4 27.2329 15.4 27.6034V28.8781H15.8857ZM23.1165 26.6762H22.3051V26.0047H21.8658V26.6762H21.4025V27.0679H21.8658V28.1132C21.8658 28.6229 22.051 28.9245 22.6073 28.9245C22.818 28.9201 23.0245 28.8644 23.2088 28.7623L23.0695 28.3706C22.9444 28.4487 22.7994 28.4889 22.652 28.4864C22.4204 28.4864 22.3045 28.3471 22.3045 28.1154V27.05H23.1159V26.679L23.1165 26.6762ZM27.2417 26.6068C27.1217 26.6041 27.0031 26.6326 26.8975 26.6895C26.7918 26.7464 26.7028 26.8297 26.639 26.9313V26.6516H26.1986V28.8764H26.639V27.6269C26.639 27.2559 26.8242 27.0242 27.1258 27.0242C27.2276 27.0284 27.3286 27.0439 27.4269 27.0707L27.5662 26.6532C27.4599 26.6264 27.3512 26.6109 27.2417 26.6068ZM21.0074 26.8384C20.7758 26.6762 20.4512 26.6068 20.1037 26.6068C19.5475 26.6068 19.2 26.862 19.2 27.3023C19.2 27.6733 19.4552 27.8815 19.9415 27.9514L20.1731 27.9744C20.4283 28.0208 20.5906 28.1137 20.5906 28.2295C20.5906 28.3918 20.4053 28.5093 20.0573 28.5093C19.7915 28.5148 19.5312 28.4335 19.3158 28.2777L19.0842 28.6252C19.4087 28.8568 19.8027 28.905 20.0355 28.905C20.6846 28.905 21.0321 28.6039 21.0321 28.1865C21.0321 27.7948 20.7523 27.6073 20.2671 27.5374L20.0355 27.5144C19.8267 27.4915 19.6438 27.4215 19.6438 27.2828C19.6438 27.1205 19.829 27.003 20.0841 27.003C20.3639 27.003 20.6404 27.1188 20.7797 27.1882L21.0074 26.8384ZM27.7285 27.7657C27.7285 28.4372 28.1689 28.9245 28.8874 28.9245C29.2119 28.9245 29.4436 28.8552 29.6752 28.6694L29.4436 28.3219C29.2796 28.4547 29.0755 28.5283 28.8644 28.5306C28.4727 28.5306 28.1689 28.2295 28.1689 27.7892C28.1689 27.3488 28.4688 27.05 28.8644 27.05C29.0755 27.0523 29.2796 27.1259 29.4436 27.2587L29.6752 26.9112C29.4436 26.726 29.2119 26.656 28.8874 26.656C28.1918 26.6096 27.7285 27.0964 27.7285 27.7685V27.7657ZM24.6228 26.6068C23.9737 26.6068 23.5334 27.0701 23.5334 27.7657C23.5334 28.4612 23.9967 28.9245 24.6687 28.9245C24.9957 28.9314 25.315 28.8251 25.5724 28.6235L25.3408 28.2989C25.1546 28.4432 24.9272 28.5244 24.6917 28.5306C24.3906 28.5306 24.0661 28.3454 24.0202 27.9514H25.6659V27.7662C25.6659 27.0707 25.2485 26.6073 24.6228 26.6073V26.6068ZM24.5999 27.0242C24.9245 27.0242 25.1561 27.2329 25.1791 27.5804H23.9743C24.0437 27.2559 24.2541 27.0242 24.5999 27.0242ZM18.5974 27.7657V26.6532H18.157V26.933C17.9947 26.7243 17.7653 26.6085 17.4385 26.6085C16.8129 26.6085 16.349 27.0953 16.349 27.7673C16.349 28.4394 16.8123 28.9262 17.4385 28.9262C17.763 28.9262 17.9947 28.8104 18.157 28.6017V28.8815H18.5974V27.7657ZM16.8129 27.7657C16.8129 27.3482 17.068 27.0242 17.5084 27.0242C17.9259 27.0242 18.1799 27.3488 18.1799 27.7657C18.1799 28.206 17.9001 28.5071 17.5084 28.5071C17.068 28.53 16.8129 28.1825 16.8129 27.7657ZM33.9403 26.6068C33.8204 26.6041 33.7018 26.6326 33.5961 26.6895C33.4905 26.7464 33.4014 26.8297 33.3377 26.9313V26.6516H32.8973V28.8764H33.3371V27.6269C33.3371 27.2559 33.5223 27.0242 33.8239 27.0242C33.9257 27.0284 34.0267 27.0439 34.125 27.0707L34.2643 26.6532C34.158 26.6264 34.0493 26.6109 33.9398 26.6068H33.9403ZM32.2252 27.7657V26.6532H31.7848V26.933C31.6226 26.7243 31.3931 26.6085 31.0663 26.6085C30.4407 26.6085 29.9769 27.0953 29.9769 27.7673C29.9769 28.4394 30.4402 28.9262 31.0663 28.9262C31.3909 28.9262 31.6226 28.8104 31.7848 28.6017V28.8815H32.2252V27.7657ZM30.4407 27.7657C30.4407 27.3482 30.6959 27.0242 31.1363 27.0242C31.5537 27.0242 31.8078 27.3488 31.8078 27.7657C31.8078 28.206 31.528 28.5071 31.1363 28.5071C30.6959 28.53 30.4407 28.1825 30.4407 27.7657ZM36.6985 27.7657V25.7725H36.2581V26.9313C36.0958 26.7226 35.8664 26.6068 35.5396 26.6068C34.914 26.6068 34.4501 27.0936 34.4501 27.7657C34.4501 28.4377 34.9134 28.9245 35.5396 28.9245C35.8641 28.9245 36.0958 28.8087 36.2581 28.6V28.8798H36.6985V27.7657ZM34.914 27.7657C34.914 27.3482 35.1691 27.0242 35.6095 27.0242C36.027 27.0242 36.281 27.3488 36.281 27.7657C36.281 28.206 36.0012 28.5071 35.6095 28.5071C35.1686 28.5306 34.9134 28.1831 34.9134 27.7657H34.914Z" fill="white"/>
<path d="M20.5002 9.78418H28.5424V22.9017H20.5002V9.78418Z" fill="#FF5F00"/>
<path d="M21.2913 16.3418C21.2916 15.0799 21.5773 13.8344 22.1272 12.6985C22.677 11.5627 23.4767 10.566 24.4663 9.78302C23.2356 8.81536 21.7574 8.21351 20.2008 8.04628C18.6441 7.87904 17.0718 8.15317 15.6636 8.83732C14.2554 9.52147 13.0681 10.588 12.2375 11.9151C11.4068 13.2422 10.9663 14.7762 10.9663 16.3418C10.9663 17.9074 11.4068 19.4414 12.2375 20.7685C13.0681 22.0955 14.2554 23.1621 15.6636 23.8463C17.0718 24.5304 18.6441 24.8045 20.2008 24.6373C21.7574 24.4701 23.2356 23.8682 24.4663 22.9006C23.4767 22.1176 22.677 21.1209 22.1272 19.985C21.5773 18.8492 21.2916 17.6037 21.2913 16.3418Z" fill="#EB001B"/>
<path d="M37.9765 16.3414C37.9776 17.9058 37.5384 19.439 36.7091 20.7656C35.8798 22.0922 34.6939 23.1586 33.287 23.8428C31.8801 24.5271 30.309 24.8015 28.7535 24.6348C27.1979 24.4681 25.7207 23.867 24.4907 22.9001C25.4806 22.1174 26.2804 21.1207 26.8303 19.9848C27.3802 18.849 27.6658 17.6034 27.6658 16.3414C27.6658 15.0794 27.3802 13.8338 26.8303 12.6979C26.2804 11.5621 25.4806 10.5654 24.4907 9.78262C25.7207 8.81579 27.1979 8.21465 28.7535 8.04795C30.309 7.88124 31.8801 8.15571 33.287 8.83995C34.6939 9.52419 35.8798 10.5906 36.7091 11.9172C37.5384 13.2437 37.9776 14.7769 37.9765 16.3414Z" fill="#F79E1B"/>
</g>
<defs>
<clipPath id="clip0_10441_91720">
<rect width="27" height="20.9281" fill="white" transform="translate(11 8)"/>
</clipPath>
</defs>
</svg>
