<svg width="400" height="237" viewBox="0 0 400 237" fill="none" xmlns="http://www.w3.org/2000/svg">
<rect width="400" height="237" rx="13" fill="#ECFFF3"/>
<circle cx="200" cy="118" r="94" fill="#C3FED8"/>
<path fill-rule="evenodd" clip-rule="evenodd" d="M193.694 83.1378C197.463 81.8864 201.526 81.8864 205.296 83.1378C209.051 84.384 211.998 87.3396 214.959 91.4924C217.911 95.6313 221.173 101.402 225.377 108.841L225.542 109.133C229.747 116.574 233.008 122.344 235.04 127.024C237.082 131.727 238.1 135.787 237.288 139.688C236.471 143.616 234.456 147.187 231.521 149.886C228.594 152.579 224.608 153.715 219.589 154.261C214.598 154.803 208.07 154.803 199.668 154.803H199.322C190.92 154.803 184.391 154.803 179.401 154.261C174.382 153.715 170.396 152.579 167.468 149.886C164.534 147.187 162.519 143.616 161.701 139.688C160.89 135.787 161.907 131.727 163.949 127.024C165.982 122.344 169.243 116.574 173.448 109.133L173.613 108.841C177.817 101.402 181.078 95.6313 184.03 91.4924C186.991 87.3396 189.939 84.384 193.694 83.1378ZM195.953 136.21C195.953 134.254 197.532 132.668 199.479 132.668H199.511C201.458 132.668 203.036 134.254 203.036 136.21C203.036 138.166 201.458 139.751 199.511 139.751H199.479C197.532 139.751 195.953 138.166 195.953 136.21ZM195.953 122.043C195.953 123.999 197.539 125.585 199.495 125.585C201.451 125.585 203.036 123.999 203.036 122.043V107.876C203.036 105.92 201.451 104.335 199.495 104.335C197.539 104.335 195.953 105.92 195.953 107.876V122.043Z" fill="#0AB247"/>
</svg>
