<svg width="398" height="237" viewBox="0 0 398 237" fill="none" xmlns="http://www.w3.org/2000/svg">
<g clip-path="url(#clip0_10441_84067)">
<rect width="398" height="237" rx="13" fill="#ECFFF3"/>
<circle cx="398" cy="27" r="91" fill="#C3FED8"/>
<circle cy="210" r="91" fill="#C3FED8"/>
<path d="M222.145 90.2422C222.145 90.2422 230.263 91.6137 230.916 91.7878C231.57 91.9619 234.14 93.182 234.271 93.9664C234.402 94.7508 234.271 97.0597 234.271 97.0597C234.271 97.0597 233.807 97.4385 233.517 96.6828C233.226 95.9271 233.269 94.4323 233.269 94.4323L231.832 93.8789L232.616 95.273L232.747 98.5409C232.747 98.5409 231.742 98.4493 231.547 97.667C231.353 96.8851 231.356 96.0137 231.356 96.0137L230.307 95.1251L231.091 96.1878L231.356 98.5404C231.356 98.5404 230.59 98.7875 230.349 98.2657C230.109 97.7434 230.089 96.1878 230.089 96.1878L227.131 95.1543L225.171 96.2451L221.512 94.1757L222.145 90.2422Z" fill="#FFBE9D"/>
<path d="M193.723 70.1836C193.76 70.3446 203.503 83.7567 203.503 83.7567L223.075 89.8436L222.184 97.195L198.197 92.3649L189.684 82.595L193.723 70.1836Z" fill="#0AB247"/>
<g opacity="0.2">
<path d="M193.723 70.1836C193.76 70.3446 203.503 83.7567 203.503 83.7567L223.075 89.8436L222.184 97.195L198.197 92.3649L189.684 82.595L193.723 70.1836Z" fill="black"/>
</g>
<path d="M159.638 96.4386H119.647C118.8 96.4386 118.113 95.7518 118.113 94.9051V90.1781C118.113 89.3313 118.8 88.6445 119.647 88.6445H159.638C160.485 88.6445 161.171 89.3313 161.171 90.1781V94.9051C161.171 95.7518 160.485 96.4386 159.638 96.4386Z" fill="#F5F5F5"/>
<path d="M159.635 96.4323C159.635 96.4232 159.723 96.4287 159.887 96.396C160.049 96.3623 160.299 96.2954 160.554 96.0911C160.806 95.8939 161.065 95.5467 161.119 95.0743C161.137 94.6018 161.117 94.0378 161.118 93.4134C161.115 92.7855 161.111 92.0892 161.107 91.3274C161.104 90.9466 161.102 90.5491 161.099 90.1365C161.091 89.741 160.908 89.336 160.583 89.0613C160.423 88.9224 160.227 88.8208 160.015 88.7655C159.805 88.7051 159.579 88.7162 159.338 88.7162C158.863 88.7177 158.372 88.7192 157.867 88.7212C156.858 88.7242 155.79 88.7272 154.67 88.7302C145.697 88.7403 133.319 88.7534 119.647 88.7685C119.254 88.7655 118.869 88.939 118.609 89.2283C118.342 89.5202 118.218 89.9005 118.242 90.3101C118.242 91.1544 118.241 91.9936 118.241 92.8263C118.241 93.2424 118.241 93.6575 118.241 94.0705V94.6894C118.239 94.9022 118.239 95.0838 118.291 95.2665C118.388 95.6292 118.638 95.9462 118.964 96.1263C119.126 96.2169 119.307 96.2743 119.491 96.2944C119.668 96.31 119.886 96.3004 120.083 96.3034C123.307 96.306 126.418 96.3085 129.382 96.311C135.306 96.3216 140.642 96.3311 145.127 96.3392C149.601 96.3568 153.225 96.3709 155.743 96.3809C156.987 96.3915 157.957 96.4 158.629 96.4056C158.95 96.4111 159.199 96.4156 159.379 96.4187C159.549 96.4232 159.635 96.4323 159.635 96.4323C159.635 96.4323 159.549 96.4413 159.38 96.4458C159.2 96.4489 158.951 96.4534 158.629 96.4589C157.958 96.4645 156.987 96.473 155.743 96.4836C153.225 96.4936 149.601 96.5077 145.128 96.5253C140.642 96.5334 135.307 96.5429 129.382 96.5535C126.419 96.556 123.308 96.5585 120.083 96.5611C119.877 96.5575 119.69 96.5696 119.464 96.551C119.246 96.5278 119.032 96.4599 118.839 96.3528C118.453 96.1399 118.157 95.7656 118.042 95.3354C117.98 95.1221 117.979 94.8881 117.982 94.6904L117.981 94.0715C117.981 93.6585 117.981 93.2434 117.981 92.8273C117.981 91.9946 117.98 91.1559 117.98 90.3111C117.951 89.8779 118.099 89.3873 118.415 89.0533C118.723 88.7106 119.182 88.5043 119.647 88.5079C133.319 88.523 145.697 88.5365 154.67 88.5461C155.79 88.5496 156.858 88.5526 157.867 88.5551C158.372 88.5567 158.862 88.5587 159.338 88.5602C159.57 88.5617 159.819 88.5511 160.054 88.6196C160.287 88.6829 160.503 88.7967 160.678 88.9506C161.033 89.2555 161.23 89.7023 161.235 90.134C161.233 90.5481 161.232 90.9466 161.231 91.3284C161.227 92.0902 161.223 92.7865 161.22 93.4144C161.211 94.0429 161.224 94.5938 161.196 95.0843C161.131 95.5804 160.852 95.9367 160.586 96.1339C160.317 96.3382 160.058 96.398 159.892 96.4232C159.723 96.4468 159.635 96.4323 159.635 96.4323Z" fill="#263238"/>
<path d="M268.214 196.006C279.563 195.461 288.32 185.819 287.775 174.471C287.23 163.123 277.588 154.366 266.239 154.911C254.891 155.456 246.134 165.098 246.679 176.446C247.224 187.794 256.866 196.551 268.214 196.006Z" fill="#263238"/>
<path d="M246.666 175.121C246.665 175.139 246.662 175.156 246.662 175.174C246.498 186.534 255.575 195.877 266.936 196.041C278.297 196.205 287.639 187.128 287.803 175.768C287.803 175.75 287.801 175.732 287.801 175.714L246.666 175.121Z" fill="#263238"/>
<path d="M252.791 175.255C252.675 183.231 259.048 189.79 267.024 189.905C275 190.02 281.559 183.648 281.674 175.671C281.789 167.696 275.417 161.136 267.44 161.021C259.465 160.906 252.906 167.279 252.791 175.255Z" fill="#FAFAFA"/>
<path d="M267.439 161.021C259.463 160.906 252.904 167.279 252.789 175.255L281.673 175.671C281.787 167.696 275.415 161.136 267.439 161.021Z" fill="#E0E0E0"/>
<path d="M258.427 175.351C258.357 180.209 262.238 184.205 267.097 184.275C271.956 184.345 275.951 180.463 276.021 175.605C276.091 170.746 272.209 166.751 267.351 166.681C262.492 166.61 258.497 170.492 258.427 175.351Z" fill="#263238"/>
<path d="M257.47 145.311C257.47 145.311 278.533 138.94 287.245 161.824L243.168 175.476L257.47 145.311Z" fill="#0AB247"/>
<path d="M141.277 196.002C152.625 195.457 161.383 185.815 160.837 174.467C160.292 163.119 150.65 154.362 139.302 154.907C127.954 155.452 119.196 165.094 119.741 176.442C120.287 187.79 129.929 196.548 141.277 196.002Z" fill="#263238"/>
<path d="M119.728 175.141C119.728 175.158 119.725 175.176 119.725 175.193C119.561 186.554 128.638 195.896 139.998 196.061C151.359 196.225 160.702 187.147 160.865 175.787C160.865 175.769 160.863 175.752 160.863 175.734L119.728 175.141Z" fill="#263238"/>
<path d="M125.853 175.251C125.738 183.227 132.111 189.786 140.086 189.901C148.063 190.016 154.621 183.644 154.737 175.667C154.852 167.692 148.479 161.132 140.503 161.017C132.527 160.902 125.968 167.275 125.853 175.251Z" fill="#FAFAFA"/>
<path d="M140.525 161.017C132.549 160.902 125.99 167.275 125.875 175.251L154.759 175.667C154.874 167.692 148.501 161.132 140.525 161.017Z" fill="#E0E0E0"/>
<path d="M131.513 175.347C131.443 180.206 135.324 184.201 140.183 184.271C145.041 184.341 149.037 180.459 149.107 175.601C149.177 170.742 145.295 166.747 140.437 166.677C135.578 166.606 131.583 170.488 131.513 175.347Z" fill="#263238"/>
<path d="M169.558 167.211C169.444 167.269 158.731 165.555 158.731 165.555C157.558 167.084 155.77 168.02 153.845 168.113C149.219 168.335 144.693 168.538 140.775 168.713C137.121 168.877 134.289 171.968 134.444 175.623L134.444 175.628C134.59 179.084 137.363 181.849 140.819 181.985L163.601 182.882C167.347 183.03 172.327 180.752 174.666 177.823L169.558 167.211Z" fill="#455A64"/>
<path d="M113.595 158.117C113.595 158.117 112.615 138.068 131.456 133.891V131.321H197.462V137.45C197.462 137.45 187.774 149.115 190.937 158.803C194.101 168.492 195.089 169.48 195.089 169.48H232.655C232.655 169.48 237.203 163.746 237.4 155.244C237.598 146.742 234.065 132.204 231.428 122.912C229.031 114.462 227.514 107.397 227.514 107.397L238.784 103.641C238.784 103.641 259.638 130.907 260.489 132.44C261.341 133.973 264.237 137.551 263.556 145.387C262.875 153.224 244.135 177.415 239.195 180.141C234.254 182.867 229.825 183.037 225.396 183.719C221.551 184.31 193.111 183.919 185.672 183.805C183.089 183.766 180.537 183.106 178.328 181.766C176.103 180.417 174.43 178.185 172.584 174.519L168.665 166.853L113.595 158.117Z" fill="#0AB247"/>
<path d="M118.641 156.723L110.327 169.745C109.262 171.412 110.985 173.51 112.799 172.723C113.679 172.342 114.627 171.746 115.588 170.832C119.391 167.214 126.168 157.685 126.168 157.685L118.641 156.723Z" fill="#455A64"/>
<path d="M178.258 159.057C178.254 159.056 178.27 158.991 178.307 158.868C178.348 158.732 178.403 158.551 178.474 158.321C178.616 157.839 178.786 157.117 178.909 156.172C179.121 154.298 179.024 151.435 177.622 148.314C176.939 146.758 175.927 145.167 174.56 143.708C173.186 142.26 171.488 140.92 169.507 139.854C167.533 138.779 165.304 137.936 162.914 137.4C160.524 136.864 157.983 136.622 155.384 136.622C152.782 136.621 150.245 136.852 147.811 137.177C145.376 137.505 143.039 137.909 140.84 138.411C136.437 139.4 132.606 140.865 129.643 142.553C126.67 144.231 124.562 146.061 123.245 147.435C122.581 148.121 122.106 148.69 121.787 149.079C121.637 149.267 121.519 149.415 121.43 149.526C121.348 149.626 121.305 149.676 121.301 149.673C121.301 149.673 121.862 148.767 123.171 147.365C124.471 145.963 126.573 144.1 129.552 142.392C132.52 140.673 136.368 139.182 140.785 138.175C142.992 137.665 145.336 137.255 147.777 136.922C150.218 136.593 152.766 136.359 155.384 136.359C158 136.359 160.559 136.605 162.971 137.149C165.382 137.694 167.631 138.551 169.624 139.642C171.622 140.726 173.335 142.087 174.719 143.559C176.096 145.043 177.113 146.661 177.792 148.238C179.188 151.404 179.256 154.3 179.011 156.184C178.871 157.134 178.683 157.857 178.524 158.336C178.443 158.564 178.38 158.742 178.332 158.876C178.287 158.998 178.262 159.059 178.258 159.057Z" fill="#263238"/>
<path d="M174.456 154.555C174.427 154.544 174.566 154.239 174.705 153.662C174.86 153.09 174.926 152.218 174.78 151.17C174.636 150.12 174.232 148.903 173.554 147.675C173.221 147.058 172.812 146.441 172.337 145.845C171.869 145.242 171.319 144.669 170.702 144.151C169.461 143.109 168.078 142.376 166.776 141.854C165.464 141.347 164.225 141.044 163.174 140.871C162.122 140.695 161.259 140.621 160.663 140.585C160.066 140.548 159.734 140.535 159.734 140.514C159.734 140.505 159.817 140.497 159.975 140.491C160.133 140.488 160.367 140.475 160.667 140.483C161.267 140.488 162.138 140.534 163.203 140.688C164.268 140.84 165.526 141.127 166.863 141.63C168.192 142.147 169.601 142.886 170.87 143.95C171.503 144.483 172.064 145.069 172.538 145.686C173.02 146.297 173.433 146.927 173.765 147.56C174.445 148.819 174.84 150.069 174.963 151.146C175.089 152.221 174.991 153.113 174.803 153.689C174.743 153.986 174.615 154.191 174.564 154.34C174.501 154.485 174.464 154.559 174.456 154.555Z" fill="#F5F5F5"/>
<g opacity="0.4">
<path d="M161.527 136.992C165.216 137.696 168.441 139.019 171.467 141.038C174.493 143.058 176.808 145.917 178.125 149.308C179.442 152.7 179.245 157.191 177.859 160L182.522 160.386C184.093 155.15 182.383 148.724 178.61 144.624C174.183 139.815 168.094 136.992 161.527 136.992Z" fill="black"/>
</g>
<path d="M160.047 131.311H119.246C116.862 131.311 114.93 129.378 114.93 126.995V100.352C114.93 97.9677 116.862 96.0352 119.246 96.0352H160.047C162.431 96.0352 164.364 97.9677 164.364 100.352V126.995C164.363 129.378 162.431 131.311 160.047 131.311Z" fill="#455A64"/>
<path d="M164.36 103.9C164.36 103.973 153.246 104.031 139.539 104.031C125.827 104.031 114.715 103.973 114.715 103.9C114.715 103.828 125.827 103.77 139.539 103.77C153.246 103.77 164.36 103.828 164.36 103.9Z" fill="#263238"/>
<path d="M197.425 133.654C197.425 133.727 182.59 133.785 164.294 133.785C145.992 133.785 131.16 133.726 131.16 133.654C131.16 133.582 145.992 133.523 164.294 133.523C182.59 133.523 197.425 133.582 197.425 133.654Z" fill="#263238"/>
<path d="M197.46 131.316C197.46 131.316 198.549 130.017 198.653 128.359C198.757 126.701 198.001 124.629 196.218 124.629H173.425C169.732 124.629 166.738 127.623 166.738 131.316H197.46Z" fill="#455A64"/>
<path d="M227.508 107.39L223.544 99.1238C222.46 96.7732 223.324 93.9843 225.547 92.658L237.4 85.5885C238.02 85.2186 238.728 85.0234 239.45 85.0234H242.011L243.037 101.732L239.085 103.244L241.586 107.311L227.508 107.39Z" fill="#0AB247"/>
<path d="M242.051 85.6328C242.051 85.6328 246.106 86.5626 246.616 92.8146C247.126 99.0665 243.039 101.012 243.039 101.012L242.051 85.6328Z" fill="#EBEBEB"/>
<path d="M228.895 95.8922C228.895 95.8922 220.697 99.7775 219.696 100.415C219.002 100.857 218.406 101.632 218.95 102.994C219.879 105.316 223.712 103.132 223.712 103.132L231.342 99.3171C231.342 99.3171 234.276 97.932 233.193 96.1997C231.98 94.2601 228.895 95.8922 228.895 95.8922Z" fill="#263238"/>
<path d="M217.296 94.4688C217.296 94.4688 224.996 95.789 225.649 95.9631C226.303 96.1372 228.873 97.3572 229.004 98.1416C229.135 98.926 229.004 101.235 229.004 101.235C229.004 101.235 228.54 101.614 228.249 100.858C227.959 100.102 228.002 98.6075 228.002 98.6075L226.564 98.0541L227.349 99.4483L227.48 102.716C227.48 102.716 226.475 102.625 226.28 101.843C226.085 101.061 226.088 100.189 226.088 100.189L225.039 99.3009L225.824 100.363L226.088 102.716C226.088 102.716 225.323 102.964 225.082 102.441C224.842 101.919 224.822 100.363 224.822 100.363L221.864 99.33L219.904 100.421L216.824 98.7328L217.296 94.4688Z" fill="#FFBE9D"/>
<path d="M229.289 83.7457C229.289 86.8627 227.856 89.3899 226.088 89.3899C224.32 89.3899 222.887 86.8632 222.887 83.7457C222.887 80.6283 224.32 78.1016 226.088 78.1016C227.856 78.1016 229.289 80.6283 229.289 83.7457Z" fill="#263238"/>
<path d="M226.609 87.6286L228.368 93.7225C229.153 93.3241 229.317 92.5412 229.186 91.9233C228.745 89.8358 228.496 88.3495 228.012 86.5222C227.952 86.3365 226.609 87.6286 226.609 87.6286Z" fill="#263238"/>
<g opacity="0.4">
<path d="M191.804 161.406C191.63 160.903 191.453 160.389 191.285 159.862C191.129 159.37 190.945 158.86 190.81 158.372C190.569 157.497 190.429 156.596 190.37 156.075C187.402 168.159 191.933 176.668 199.715 177.266C211.083 178.14 224.942 178.776 230.549 177.305C240.768 174.622 244.518 166.103 245.412 164.698C246.306 163.293 254.436 148.437 249.454 134.131C244.473 119.825 235.791 104.637 235.791 104.637L227.514 107.395C227.514 107.395 229.03 114.46 231.428 122.91C234.065 132.203 237.597 146.741 237.4 155.243C237.202 163.745 232.655 169.478 232.655 169.478H195.089C195.088 169.478 194.283 168.671 191.804 161.406Z" fill="black"/>
</g>
<path d="M112.092 154.968L112.356 152.102L180.924 160.001C184.794 160.455 187.483 164.072 186.805 167.909L186.497 169.646L115.531 159.334C113.406 159.025 111.894 157.106 112.092 154.968Z" fill="#0AB247"/>
<g opacity="0.6">
<path d="M112.092 154.968L112.356 152.102L180.924 160.001C184.794 160.455 187.483 164.072 186.805 167.909L186.497 169.646L115.531 159.334C113.406 159.025 111.894 157.106 112.092 154.968Z" fill="black"/>
</g>
<g opacity="0.3">
<path d="M245.41 174.148C245.41 174.148 260.505 157.546 263.617 144.493C264.662 144.482 267.099 144.589 268.292 144.839C268.292 144.839 259.366 169.103 245.41 174.148Z" fill="black"/>
</g>
<path d="M263.398 138.645C263.407 138.643 263.435 138.787 263.48 139.064C263.519 139.341 263.601 139.748 263.652 140.278C263.75 141.337 263.815 142.893 263.535 144.785C263.263 146.675 262.617 148.881 261.544 151.165C260.495 153.461 259.051 155.831 257.547 158.309C254.523 163.283 251.158 167.351 248.712 170.257C247.482 171.707 246.469 172.865 245.764 173.661C245.422 174.043 245.15 174.347 244.947 174.574C244.758 174.78 244.655 174.885 244.649 174.88C244.642 174.874 244.731 174.757 244.907 174.539C245.101 174.305 245.36 173.991 245.687 173.595C246.384 172.759 247.365 171.583 248.57 170.138C250.978 167.205 254.312 163.127 257.323 158.174C258.827 155.695 260.272 153.338 261.325 151.064C262.402 148.802 263.059 146.626 263.352 144.758C263.652 142.887 263.617 141.345 263.551 140.288C263.516 139.759 263.45 139.352 263.428 139.073C263.4 138.793 263.39 138.646 263.398 138.645Z" fill="#263238"/>
<path d="M237.302 174.021C237.251 174.073 236.169 173.095 234.885 171.838C233.6 170.58 232.599 169.519 232.65 169.467C232.701 169.415 233.783 170.393 235.068 171.65C236.352 172.908 237.353 173.969 237.302 174.021Z" fill="#263238"/>
<path d="M192.518 173.509C192.455 173.48 192.87 172.469 193.625 171.36C194.377 170.248 195.163 169.489 195.212 169.537C195.269 169.589 194.581 170.414 193.842 171.508C193.099 172.597 192.587 173.542 192.518 173.509Z" fill="#263238"/>
<path d="M163.504 183.109C163.442 183.058 164.586 182.33 165.562 180.494C166.049 179.587 166.45 178.405 166.571 177.05C166.696 175.7 166.5 174.173 165.839 172.754C165.152 171.346 164.088 170.233 162.96 169.48C161.831 168.722 160.659 168.289 159.649 168.097C157.607 167.701 156.322 168.132 156.32 168.052C156.318 168.044 156.395 168.02 156.545 167.984C156.696 167.955 156.915 167.883 157.206 167.856C157.785 167.766 158.645 167.739 159.683 167.915C160.719 168.088 161.927 168.511 163.095 169.28C164.26 170.041 165.365 171.183 166.075 172.641C166.76 174.11 166.953 175.688 166.812 177.072C166.674 178.462 166.244 179.667 165.725 180.582C165.21 181.499 164.647 182.151 164.214 182.544C164.009 182.754 163.815 182.878 163.698 182.977C163.576 183.071 163.509 183.116 163.504 183.109Z" fill="#263238"/>
<path d="M138.47 177.849C138.397 177.852 138.287 176.77 138.223 175.431C138.159 174.091 138.167 173.003 138.239 173C138.311 172.996 138.422 174.079 138.486 175.419C138.549 176.757 138.542 177.845 138.47 177.849Z" fill="#263238"/>
<path d="M140.287 177.854C140.215 177.863 140.019 176.783 139.847 175.442C139.676 174.1 139.595 173.005 139.667 172.996C139.739 172.987 139.936 174.067 140.107 175.409C140.278 176.75 140.359 177.845 140.287 177.854Z" fill="#263238"/>
<path d="M168.563 131.322C168.563 131.395 160.226 131.453 149.944 131.453C139.659 131.453 131.324 131.394 131.324 131.322C131.324 131.25 139.659 131.191 149.944 131.191C160.226 131.191 168.563 131.25 168.563 131.322Z" fill="#263238"/>
<path d="M141.572 131.294C141.5 131.294 141.441 121.746 141.441 109.97C141.441 98.1905 141.5 88.6445 141.572 88.6445C141.645 88.6445 141.703 98.191 141.703 109.97C141.703 121.746 141.644 131.294 141.572 131.294Z" fill="#263238"/>
<path d="M136.466 131.261C136.394 131.258 136.751 121.714 137.263 109.948C137.776 98.1775 138.25 88.6415 138.322 88.6445C138.395 88.6476 138.038 98.189 137.525 109.959C137.013 121.726 136.539 131.264 136.466 131.261Z" fill="#263238"/>
<path d="M124.921 189.445C124.914 189.451 124.839 189.374 124.7 189.223C124.566 189.068 124.352 188.853 124.113 188.545C123.616 187.945 122.95 187.029 122.257 185.817C120.866 183.416 119.487 179.665 119.504 175.373C119.522 171.078 120.932 167.339 122.343 164.95C123.046 163.743 123.72 162.832 124.222 162.237C124.464 161.931 124.68 161.717 124.815 161.564C124.955 161.414 125.031 161.338 125.038 161.344C125.045 161.35 124.982 161.438 124.855 161.599C124.733 161.763 124.53 161.987 124.302 162.301C123.827 162.912 123.181 163.833 122.505 165.041C121.147 167.433 119.785 171.135 119.766 175.373C119.75 179.61 121.081 183.322 122.419 185.726C123.085 186.939 123.723 187.865 124.194 188.481C124.419 188.797 124.62 189.023 124.741 189.188C124.865 189.351 124.928 189.439 124.921 189.445Z" fill="#455A64"/>
<path d="M196.998 151.113L196.841 151.409L193.813 157.111L189.566 161.2L198.053 172.498L205.125 171.325C205.125 171.325 204.33 169.71 200.782 169.399L199.425 162.646L204.412 154.917" fill="#455A64"/>
<path d="M189.566 161.186L198.053 172.484L205.124 171.311L204.151 170.381L198.348 171.018L190.47 160.316L189.566 161.186Z" fill="#E0E0E0"/>
<path d="M200.215 166.286C200.175 166.367 199.728 166.203 199.184 166.309C198.637 166.4 198.276 166.71 198.21 166.648C198.134 166.606 198.462 166.116 199.128 165.999C199.792 165.876 200.271 166.22 200.215 166.286Z" fill="#263238"/>
<path d="M199.814 164.623C199.752 164.685 199.368 164.32 198.785 164.304C198.203 164.282 197.796 164.62 197.737 164.555C197.708 164.527 197.77 164.395 197.95 164.254C198.127 164.113 198.435 163.977 198.796 163.989C199.155 164.001 199.454 164.157 199.621 164.309C199.793 164.461 199.846 164.597 199.814 164.623Z" fill="#263238"/>
<path d="M199.504 162.461C199.433 162.513 199.124 162.144 198.603 162.056C198.083 161.961 197.667 162.201 197.618 162.128C197.593 162.096 197.666 161.982 197.85 161.877C198.03 161.771 198.33 161.688 198.658 161.745C198.986 161.803 199.239 161.984 199.372 162.145C199.509 162.307 199.539 162.439 199.504 162.461Z" fill="#263238"/>
<path d="M201.121 160.47C201.042 160.513 200.777 160.144 200.29 159.933C199.81 159.707 199.357 159.753 199.338 159.664C199.3 159.586 199.828 159.375 200.42 159.645C201.014 159.91 201.204 160.446 201.121 160.47Z" fill="#263238"/>
<path d="M201.809 158.866C201.776 158.896 201.496 158.65 201.068 158.229C200.825 157.982 200.58 157.733 200.329 157.478C200.199 157.329 200.033 157.209 199.906 156.961C199.847 156.835 199.824 156.679 199.878 156.525C199.925 156.363 200.108 156.235 200.268 156.231C200.584 156.224 200.783 156.354 200.985 156.464C201.183 156.584 201.353 156.729 201.497 156.883C201.782 157.194 201.95 157.541 202.037 157.842C202.21 158.456 202.065 158.847 202.038 158.834C201.981 158.832 202.037 158.451 201.826 157.913C201.721 157.648 201.55 157.348 201.286 157.084C201.154 156.953 201.001 156.83 200.828 156.73C200.66 156.634 200.443 156.534 200.297 156.545C200.226 156.554 200.195 156.577 200.173 156.631C200.152 156.688 200.156 156.766 200.188 156.834C200.251 156.979 200.416 157.131 200.543 157.281C200.777 157.552 201.006 157.816 201.233 158.078C201.618 158.538 201.841 158.837 201.809 158.866Z" fill="#263238"/>
<path d="M202.086 159.018C202.052 159.021 202.017 158.645 202.329 158.156C202.635 157.692 203.38 157.126 204.363 157.429C204.437 157.474 204.504 157.566 204.514 157.663C204.527 157.762 204.497 157.842 204.467 157.901C204.401 158.025 204.318 158.095 204.25 158.166C204.105 158.308 203.952 158.431 203.798 158.535C203.49 158.743 203.179 158.874 202.911 158.949C202.371 159.1 202.022 159.049 202.023 159.013C202.019 158.963 202.355 158.932 202.839 158.739C203.08 158.642 203.357 158.501 203.63 158.298C203.767 158.197 203.903 158.081 204.031 157.949C204.096 157.88 204.162 157.815 204.187 157.759C204.212 157.691 204.206 157.711 204.191 157.694C204.164 157.672 204.065 157.658 203.974 157.652C203.884 157.646 203.793 157.647 203.705 157.655C203.528 157.671 203.36 157.714 203.208 157.775C202.902 157.895 202.671 158.094 202.51 158.288C202.188 158.686 202.137 159.03 202.086 159.018Z" fill="#263238"/>
<path d="M195.174 160.035C195.251 160.498 194.938 160.936 194.475 161.013C194.011 161.091 193.573 160.778 193.496 160.314C193.419 159.851 193.732 159.413 194.195 159.336C194.658 159.259 195.096 159.571 195.174 160.035Z" fill="#E0E0E0"/>
<path d="M222.746 156.533L225.015 171.268L243.361 168.538C242.993 166.802 232.978 164.695 232.978 164.695L231.912 155.195L222.746 156.533Z" fill="#455A64"/>
<path d="M227.19 164.756C226.849 164.906 226.663 165.342 226.799 165.688C226.934 166.035 227.376 166.228 227.719 166.084C228.062 165.94 228.301 165.424 228.127 165.095C227.954 164.766 227.423 164.567 227.124 164.789" fill="#E0E0E0"/>
<path d="M225.018 171.267L224.848 169.773L242.501 167.715C242.501 167.715 243.371 167.949 243.364 168.537L225.018 171.267Z" fill="#E0E0E0"/>
<path d="M233.273 164.559C233.283 164.649 232.841 164.756 232.443 165.11C232.036 165.453 231.867 165.875 231.779 165.851C231.694 165.846 231.748 165.291 232.237 164.871C232.722 164.447 233.28 164.473 233.273 164.559Z" fill="#263238"/>
<path d="M235.318 165.072C235.351 165.156 234.985 165.366 234.738 165.79C234.477 166.206 234.462 166.628 234.372 166.637C234.29 166.664 234.15 166.148 234.468 165.627C234.781 165.103 235.303 164.987 235.318 165.072Z" fill="#263238"/>
<path d="M236.735 167.213C236.657 167.245 236.466 166.815 236.623 166.291C236.776 165.764 237.17 165.508 237.219 165.577C237.28 165.643 237.048 165.947 236.925 166.38C236.792 166.809 236.823 167.191 236.735 167.213Z" fill="#263238"/>
<path d="M232.792 162.43C232.767 162.517 232.337 162.455 231.836 162.565C231.332 162.664 230.963 162.893 230.906 162.823C230.844 162.766 231.179 162.377 231.772 162.256C232.363 162.131 232.826 162.353 232.792 162.43Z" fill="#263238"/>
<path d="M232.036 160.301C232.042 160.338 231.697 160.446 231.116 160.433C230.827 160.426 230.482 160.383 230.111 160.281C229.926 160.229 229.734 160.163 229.542 160.08C229.449 160.038 229.341 159.998 229.232 159.905C229.119 159.826 229.027 159.597 229.12 159.434C229.193 159.279 229.35 159.194 229.482 159.171C229.617 159.146 229.73 159.157 229.834 159.167C230.046 159.187 230.247 159.226 230.434 159.279C230.809 159.386 231.124 159.545 231.364 159.709C231.849 160.04 232.043 160.353 232.015 160.374C231.979 160.41 231.73 160.16 231.248 159.899C231.008 159.77 230.707 159.643 230.36 159.56C230.187 159.519 230.002 159.489 229.809 159.476C229.607 159.454 229.442 159.477 229.404 159.571C229.391 159.607 229.391 159.62 229.44 159.671C229.49 159.717 229.576 159.757 229.667 159.798C229.846 159.879 230.023 159.947 230.194 160.003C230.538 160.114 230.86 160.177 231.133 160.211C231.681 160.28 232.03 160.253 232.036 160.301Z" fill="#263238"/>
<path d="M231.923 160.458C231.893 160.477 231.668 160.182 231.549 159.607C231.491 159.322 231.469 158.969 231.524 158.583C231.554 158.39 231.602 158.19 231.675 157.99C231.756 157.793 231.851 157.531 232.193 157.439C232.373 157.405 232.545 157.525 232.615 157.638C232.694 157.754 232.722 157.858 232.759 157.961C232.825 158.171 232.852 158.382 232.852 158.58C232.852 158.979 232.741 159.328 232.601 159.588C232.313 160.116 231.955 160.279 231.943 160.25C231.906 160.209 232.193 159.99 232.399 159.492C232.501 159.246 232.577 158.931 232.561 158.585C232.554 158.413 232.525 158.233 232.466 158.057C232.408 157.866 232.311 157.72 232.241 157.751C232.15 157.763 232.017 157.933 231.965 158.099C231.895 158.278 231.845 158.457 231.811 158.631C231.746 158.98 231.743 159.305 231.77 159.574C231.824 160.116 231.97 160.437 231.923 160.458Z" fill="#263238"/>
<path d="M208.316 121.937L192.582 156.22L202.973 162.459L224.728 121.207" fill="#263238"/>
<path d="M234.262 163.235L222.971 165.045L216.215 124.725L182.833 127.146C181.949 127.2 181.056 127.125 180.201 126.891C170.825 124.322 172.094 112.368 172.998 110.452L219.192 109.125C224.203 108.981 228.521 112.629 229.216 117.593L234.262 163.235Z" fill="#263238"/>
<path d="M172.54 112.329L172.708 95.2818C172.708 95.2818 170.508 84.1977 169.857 79.8411C168.846 73.0754 167.462 69.8644 178.541 65.0554L180.963 64.1211L184.712 64.1709C189.183 64.507 193.892 68.5477 194.001 71.2274L198.314 109.64L172.54 112.329Z" fill="#0AB247"/>
<path d="M173.24 69.0508C173.24 69.0508 170.114 75.7817 170.739 81.9135L182.394 93.1027C185.008 96.0129 188.276 97.2491 192.455 97.5021L216.578 100.139L217.247 93.8282L194.301 87.3252C193.389 87.1571 192.933 86.2032 192.233 85.5934L173.24 69.0508Z" fill="#0AB247"/>
<path d="M171.359 70.9827C171.359 70.9827 171.491 70.8388 171.822 70.6733C172.152 70.5102 172.678 70.3442 173.38 70.2375C174.08 70.1384 174.966 70.0594 175.987 70.2446C176.238 70.3035 176.504 70.3633 176.753 70.5072C176.996 70.6461 177.226 70.8146 177.462 70.9922C177.928 71.353 178.397 71.7671 178.872 72.2239C179.84 73.1245 180.752 74.2667 181.825 75.4229C182.893 76.5871 184.071 77.8238 185.345 79.1259C186.619 80.4281 187.992 81.7941 189.465 83.2019C190.204 83.9027 190.967 84.6167 191.772 85.3165C192.18 85.6516 192.584 86.0441 192.971 86.4114C193.366 86.7716 193.81 87.1102 194.326 87.2048L194.333 87.2063L194.338 87.2078C201.162 89.1374 208.987 91.3496 217.288 93.6968L217.394 93.727L217.382 93.8366C217.335 94.2829 217.284 94.7654 217.232 95.2495C217.054 96.9274 216.878 98.5873 216.712 100.147L216.699 100.277L216.568 100.263C213.059 99.8778 209.646 99.5035 206.359 99.1427C204.716 98.9616 203.104 98.7845 201.528 98.6109C199.951 98.4514 198.408 98.2959 196.905 98.144C195.403 97.9795 193.942 97.8064 192.527 97.6001C191.114 97.3943 189.737 97.1317 188.474 96.6582C187.207 96.1959 186.076 95.5337 185.059 94.8243C184.038 94.1154 183.11 93.3733 182.24 92.6477C178.793 89.7049 176.262 87.077 174.505 85.2848C173.633 84.3822 172.966 83.6738 172.519 83.1903C172.302 82.9523 172.135 82.7687 172.014 82.6368C171.902 82.511 171.85 82.4416 171.85 82.4416C171.85 82.4416 171.914 82.4995 172.033 82.6192C172.157 82.747 172.33 82.9246 172.555 83.1556C173.023 83.6335 173.701 84.3264 174.574 85.2169C176.35 86.9869 178.901 89.5957 182.352 92.5114C183.223 93.2289 184.153 93.9655 185.168 94.6643C186.182 95.3642 187.297 96.0107 188.545 96.4615C189.791 96.9234 191.149 97.1785 192.559 97.3792C193.969 97.581 195.429 97.75 196.93 97.9105C198.432 98.059 199.974 98.2114 201.552 98.3674C203.129 98.5385 204.741 98.7135 206.384 98.8917C209.672 99.2494 213.086 99.6212 216.596 100.004L216.452 100.119C216.618 98.5596 216.794 96.8992 216.972 95.2213C217.023 94.7373 217.074 94.2547 217.122 93.8085L217.216 93.9483C208.919 91.5912 201.096 89.3693 194.274 87.4312L194.286 87.4337C193.69 87.3205 193.221 86.9482 192.817 86.5799C192.412 86.1945 192.042 85.8307 191.625 85.4856C190.817 84.7792 190.056 84.0617 189.317 83.3568C187.846 81.9415 186.477 80.5689 185.207 79.2598C183.937 77.9506 182.765 76.7069 181.702 75.5346C180.631 74.3663 179.731 73.2231 178.777 72.3225C178.307 71.8652 177.845 71.4496 177.387 71.0888C177.158 70.9112 176.929 70.7422 176.697 70.6063C176.469 70.4705 176.21 70.4081 175.966 70.3482C174.97 70.156 174.086 70.2219 173.392 70.309C172.694 70.4036 172.17 70.5565 171.839 70.7065C171.506 70.8594 171.368 70.9943 171.359 70.9827Z" fill="#263238"/>
<path d="M177.383 49.3712L178.555 65.9652C178.746 68.6746 180.999 70.7747 183.715 70.7747C186.705 70.7747 189.074 68.2464 188.878 65.2628C188.774 63.6834 188.68 62.3899 188.68 62.3899C188.68 62.3899 192.697 61.765 192.747 57.749C192.776 55.429 192.376 50.1647 192.033 46.132C191.801 43.4055 189.519 41.3125 186.782 41.3125H184.355C180.177 41.556 177.024 45.2007 177.383 49.3712Z" fill="#FFBE9D"/>
<path d="M188.701 62.3281C188.701 62.3281 186.163 62.5344 183.465 60.8398C183.465 60.8398 184.703 63.7304 188.711 63.3686L188.701 62.3281Z" fill="#EB996E"/>
<path d="M191.141 51.2842C191.151 51.5871 190.904 51.8462 190.588 51.8628C190.272 51.8794 190.007 51.6485 189.996 51.3456C189.986 51.0427 190.233 50.7836 190.549 50.7665C190.865 50.7499 191.13 50.9813 191.141 51.2842Z" fill="#263238"/>
<path d="M191.341 50.1106C191.27 50.1856 190.836 49.8641 190.218 49.8656C189.602 49.8585 189.149 50.176 189.082 50.1C189.049 50.0663 189.122 49.9315 189.319 49.7881C189.513 49.6452 189.844 49.5058 190.228 49.5078C190.613 49.5098 190.936 49.6517 191.122 49.7961C191.312 49.942 191.377 50.0769 191.341 50.1106Z" fill="#263238"/>
<path d="M185.312 51.2647C185.323 51.5676 185.075 51.8262 184.759 51.8433C184.444 51.8604 184.179 51.6289 184.168 51.326C184.158 51.0232 184.405 50.764 184.721 50.7469C185.037 50.7303 185.302 50.9618 185.312 51.2647Z" fill="#263238"/>
<path d="M185.263 50.2322C185.192 50.3071 184.757 49.9856 184.14 49.9872C183.524 49.9801 183.071 50.2976 183.004 50.2216C182.971 50.1884 183.042 50.0531 183.241 49.9097C183.435 49.7668 183.766 49.6274 184.15 49.6289C184.535 49.6309 184.858 49.7728 185.044 49.9172C185.233 50.0636 185.298 50.199 185.263 50.2322Z" fill="#263238"/>
<path d="M187.531 54.846C187.528 54.8108 187.912 54.7449 188.533 54.6654C188.691 54.6493 188.84 54.6176 188.867 54.5099C188.904 54.3962 188.838 54.2262 188.762 54.043C188.613 53.6617 188.458 53.2617 188.296 52.8431C187.649 51.1344 187.18 49.7291 187.249 49.7035C187.318 49.6778 187.898 51.0423 188.546 52.751C188.702 53.1726 188.851 53.5741 188.993 53.9585C189.052 54.1376 189.155 54.3409 189.074 54.5769C189.032 54.6946 188.916 54.7801 188.815 54.8073C188.714 54.838 188.625 54.84 188.548 54.8445C187.922 54.8782 187.533 54.8813 187.531 54.846Z" fill="#263238"/>
<path d="M185.694 55.254C185.794 55.2479 185.795 55.9181 186.369 56.3936C186.941 56.8706 187.655 56.7956 187.661 56.8892C187.67 56.9309 187.502 57.019 187.2 57.0275C186.905 57.0376 186.473 56.9425 186.122 56.6517C185.773 56.3599 185.622 55.9709 185.599 55.6962C185.573 55.416 185.648 55.25 185.694 55.254Z" fill="#263238"/>
<path d="M185.426 47.8336C185.365 48.0016 184.749 47.9221 184.025 48.0091C183.299 48.0821 182.715 48.2939 182.619 48.1435C182.576 48.0715 182.678 47.9136 182.914 47.751C183.148 47.589 183.521 47.4346 183.956 47.3863C184.39 47.339 184.788 47.4079 185.052 47.5151C185.318 47.6222 185.452 47.7541 185.426 47.8336Z" fill="#263238"/>
<path d="M191.129 48.3697C191.02 48.51 190.595 48.3646 190.084 48.3576C189.573 48.3329 189.14 48.4517 189.04 48.3053C188.996 48.2343 189.065 48.0934 189.254 47.9611C189.44 47.8288 189.752 47.7206 190.104 47.7312C190.455 47.7423 190.759 47.8695 190.937 48.0129C191.118 48.1568 191.177 48.3012 191.129 48.3697Z" fill="#263238"/>
<path d="M178.69 52.3921C178.621 52.3624 175.93 51.576 176.018 54.3217C176.105 57.0678 178.844 56.4132 178.846 56.3342C178.848 56.2557 178.69 52.3921 178.69 52.3921Z" fill="#FFBE9D"/>
<path d="M178.005 55.3165C177.992 55.308 177.958 55.3518 177.879 55.391C177.801 55.4297 177.666 55.4589 177.521 55.4096C177.228 55.3125 176.969 54.8597 176.94 54.3651C176.925 54.1155 176.969 53.8756 177.052 53.6758C177.129 53.472 177.255 53.3276 177.4 53.2969C177.544 53.2587 177.651 53.3427 177.687 53.4192C177.726 53.4947 177.71 53.55 177.725 53.5546C177.733 53.5611 177.782 53.5068 177.757 53.3941C177.744 53.3397 177.709 53.2763 177.643 53.2255C177.575 53.1742 177.478 53.15 177.376 53.1641C177.165 53.1853 176.981 53.3865 176.89 53.6059C176.788 53.8267 176.732 54.0959 176.749 54.3767C176.784 54.9296 177.084 55.4383 177.485 55.5404C177.679 55.5847 177.839 55.5213 177.92 55.4539C178.002 55.383 178.014 55.3211 178.005 55.3165Z" fill="#EB996E"/>
<path d="M177.195 52.2862C177.614 52.1851 178.338 52.5715 178.517 52.9634C178.696 53.3554 178.735 53.8001 178.913 54.1921C179.091 54.5845 179.494 54.9392 179.913 54.8401C180.202 54.7717 180.409 54.5005 180.485 54.2137C180.561 53.9264 180.53 53.623 180.493 53.3282C180.331 52.0457 180.061 50.7743 180.01 49.4827C179.958 48.1912 180.142 46.8493 180.82 45.7489C181.499 44.6486 182.744 43.8395 184.032 43.9432C184.886 44.0121 185.669 44.4569 186.516 44.5756C187.522 44.7165 188.584 44.3618 189.304 43.6453C189.396 43.5538 189.824 43.271 189.824 43.271C189.824 43.2046 189.762 42.631 189.536 42.4217C187.854 40.866 184.823 40.4318 182.601 40.9913C180.379 41.5503 178.297 43.1191 177.341 45.201C176.385 47.283 176.668 50.1791 177.195 52.2862Z" fill="#263238"/>
<path d="M192.066 45.5033C192.066 45.5033 181.529 42.1132 176.97 51.2295C176.97 51.2295 176.289 48.9483 176.289 47.7252C176.289 46.9086 176.778 42.0438 181.783 40.5137C181.783 40.5137 189.323 37.6358 192.066 45.5033Z" fill="#0AB247"/>
<path d="M183.026 45.7293C183.398 46.3311 184.063 46.7416 184.767 46.806C185.472 46.8699 186.199 46.5857 186.674 46.0614C186.882 46.5806 187.44 46.9374 187.999 46.9082C188.558 46.879 189.076 46.4659 189.228 45.9276C189.534 46.2244 189.853 46.5293 190.253 46.6762C190.654 46.8227 191.161 46.7673 191.424 46.4317C191.692 46.0896 191.614 45.5688 191.351 45.2232C191.088 44.877 190.684 44.6712 190.283 44.5042C189.031 43.9814 187.651 43.7193 186.307 43.9014C184.963 44.0836 183.661 44.7351 182.82 45.8003" fill="#263238"/>
<g opacity="0.4">
<path d="M192.066 45.5033C192.066 45.5033 190.867 44.0769 188.715 43.9818C185.607 43.8445 179.789 45.5924 176.97 51.2295C176.97 51.2295 176.289 48.9483 176.289 47.7252C176.289 46.9086 176.778 42.0438 181.783 40.5137C181.783 40.5137 189.323 37.6358 192.066 45.5033Z" fill="black"/>
</g>
<path d="M177.418 50.17C178.981 47.7796 181.135 45.8028 183.557 44.2899C185.979 42.7769 189.984 41.2801 192.745 40.5476C193.573 40.3277 194.437 40.1355 195.282 40.2814C196.127 40.4273 196.954 40.9898 197.164 41.8215C197.426 42.862 195.579 44.468 194.711 45.0994C193.843 45.7309 192.073 46.6571 192.073 46.6571C192.073 46.6571 192.097 44.7271 189.008 44.3291C184.806 43.7872 177.418 50.17 177.418 50.17Z" fill="#0AB247"/>
<g opacity="0.3">
<path d="M173.715 84.4023C174.801 87.0252 175.897 90.2578 177.471 92.6201C179.046 94.9823 181.15 97.0738 183.769 98.1702C187.056 99.5457 190.945 99.7686 194.216 98.3568C194.483 98.2416 195.005 98.0952 194.957 97.8089C194.957 97.8089 193.873 97.6872 193.54 97.6313C186.93 96.5164 186.213 95.7003 183.05 93.1997C181.077 91.6405 176.705 86.9271 173.715 84.4023Z" fill="black"/>
</g>
<path d="M194.714 103.485C194.727 103.491 194.643 103.716 194.44 104.098C194.238 104.481 193.889 105.009 193.371 105.588C192.346 106.756 190.522 108.02 188.251 108.72C185.981 109.418 183.827 109.548 182.293 109.613C181.523 109.642 180.9 109.648 180.47 109.646C180.039 109.644 179.801 109.633 179.801 109.616C179.8 109.598 180.037 109.574 180.467 109.544C180.947 109.514 181.557 109.475 182.284 109.428C183.811 109.316 185.943 109.157 188.174 108.47C190.402 107.782 192.198 106.573 193.236 105.462C194.293 104.357 194.663 103.454 194.714 103.485Z" fill="#263238"/>
<path d="M223.191 166.261C223.186 166.261 223.172 166.208 223.151 166.105C223.128 165.986 223.097 165.834 223.06 165.642C222.983 165.217 222.875 164.619 222.736 163.858C222.463 162.289 222.074 160.049 221.593 157.288C220.65 151.721 219.353 144.06 217.919 135.597C217.28 131.767 216.669 128.101 216.111 124.757L216.241 124.859C210.377 125.287 205.365 125.654 201.799 125.915C200.037 126.034 198.633 126.129 197.651 126.196C197.181 126.224 196.814 126.246 196.546 126.261C196.431 126.266 196.337 126.27 196.261 126.273C196.197 126.274 196.164 126.273 196.164 126.27C196.164 126.266 196.196 126.26 196.26 126.252C196.335 126.244 196.428 126.233 196.543 126.221C196.81 126.195 197.177 126.161 197.645 126.117C198.625 126.033 200.028 125.915 201.787 125.765C205.351 125.481 210.362 125.082 216.223 124.615L216.334 124.605L216.353 124.716C216.916 128.059 217.533 131.724 218.178 135.554C219.582 144.022 220.852 151.688 221.776 157.258C222.221 160.024 222.583 162.269 222.837 163.841C222.955 164.606 223.047 165.206 223.112 165.633C223.139 165.827 223.16 165.981 223.177 166.101C223.191 166.205 223.195 166.26 223.191 166.261Z" fill="#455A64"/>
<path d="M219.612 121.144C219.659 121.204 218.78 121.959 217.783 122.976C216.781 123.989 216.04 124.881 215.98 124.834C215.924 124.794 216.581 123.82 217.596 122.792C218.607 121.761 219.571 121.089 219.612 121.144Z" fill="#455A64"/>
<path d="M188.769 65.6146C188.778 65.6121 188.798 65.6685 188.83 65.7792C188.867 65.8888 188.898 66.0549 188.926 66.2727C188.977 66.7059 188.949 67.358 188.681 68.1021C188.409 68.8367 187.881 69.6639 187.023 70.2787C186.172 70.8976 184.998 71.2181 183.795 71.1406C182.59 71.0591 181.483 70.6057 180.661 69.9663C179.83 69.3333 179.261 68.567 178.88 67.8883C178.504 67.2015 178.303 66.5983 178.198 66.1771C178.147 65.9658 178.113 65.8008 178.099 65.6871C178.082 65.5739 178.078 65.514 178.087 65.512C178.143 65.4929 178.268 66.4705 179.041 67.7957C179.433 68.4468 180 69.1758 180.806 69.7731C181.603 70.3763 182.661 70.8005 183.812 70.8789C184.96 70.9524 186.073 70.6545 186.885 70.081C187.703 69.5109 188.226 68.7326 188.508 68.0357C188.787 67.3303 188.843 66.7044 188.824 66.2803C188.806 65.8531 188.743 65.6207 188.769 65.6146Z" fill="#263238"/>
<path d="M195.878 87.5781C195.86 87.5801 195.823 87.3929 195.771 87.0533C195.715 86.6558 195.647 86.1763 195.568 85.6138C195.401 84.3318 195.187 82.6821 194.95 80.8577C194.722 78.9976 194.543 77.3101 194.433 76.087C194.378 75.4756 194.338 74.9801 194.318 74.6369C194.298 74.2938 194.295 74.1031 194.313 74.1016C194.331 74.0996 194.368 74.2867 194.42 74.6263C194.474 75.0238 194.54 75.5043 194.617 76.0668C194.777 77.3493 194.982 79.0001 195.21 80.826C195.438 82.6846 195.635 84.3696 195.752 85.5922C195.811 86.2035 195.851 86.6991 195.872 87.0422C195.894 87.3859 195.897 87.5761 195.878 87.5781Z" fill="#263238"/>
</g>
<defs>
<clipPath id="clip0_10441_84067">
<rect width="398" height="237" rx="13" fill="white"/>
</clipPath>
</defs>
</svg>
