<svg width="20" height="20" viewBox="0 0 20 20" fill="none" xmlns="http://www.w3.org/2000/svg">
<path fill-rule="evenodd" clip-rule="evenodd" d="M16.5622 13.0208C15.9868 13.0208 15.5205 13.4871 15.5205 14.0624C15.5205 14.6378 15.9868 15.1041 16.5622 15.1041C17.1375 15.1041 17.6038 14.6378 17.6038 14.0624C17.6038 13.4871 17.1375 13.0208 16.5622 13.0208ZM14.2705 14.0624C14.2705 12.7968 15.2965 11.7708 16.5622 11.7708C17.8278 11.7708 18.8538 12.7968 18.8538 14.0624C18.8538 15.3281 17.8278 16.3541 16.5622 16.3541C15.2965 16.3541 14.2705 15.3281 14.2705 14.0624Z" fill="#2F2F3F"/>
<path d="M2.35436 9.69658C3.24018 8.86217 4.44247 8.4375 5.72917 8.4375C7.01587 8.4375 8.21816 8.86217 9.104 9.69658C9.99567 10.5364 10.5208 11.7488 10.5208 13.2292C10.5208 13.5743 10.241 13.8542 9.89583 13.8542H1.5625C1.21733 13.8542 0.9375 13.5743 0.9375 13.2292C0.9375 11.7488 1.46267 10.5364 2.35436 9.69658Z" fill="#2F2F3F"/>
<path fill-rule="evenodd" clip-rule="evenodd" d="M3.01074 6.66659C3.01074 6.20635 3.38384 5.83325 3.84408 5.83325H7.59408C8.05432 5.83325 8.42743 6.20635 8.42743 6.66659C8.42743 7.12682 8.05432 7.49992 7.59408 7.49992H3.84408C3.38384 7.49992 3.01074 7.12682 3.01074 6.66659Z" fill="#2F2F3F"/>
<path fill-rule="evenodd" clip-rule="evenodd" d="M4.06217 13.2292C4.06217 14.1497 4.80837 14.8959 5.72884 14.8959C6.64932 14.8959 7.39551 14.1497 7.39551 13.2292H9.06217C9.06217 15.0702 7.56979 16.5626 5.72884 16.5626C3.88789 16.5626 2.39551 15.0702 2.39551 13.2292H4.06217Z" fill="#2F2F3F"/>
<path fill-rule="evenodd" clip-rule="evenodd" d="M16.5625 13.2292C16.1022 13.2292 15.7292 13.6022 15.7292 14.0625C15.7292 14.5227 16.1022 14.8958 16.5625 14.8958C17.0227 14.8958 17.3958 14.5227 17.3958 14.0625C17.3958 13.6022 17.0227 13.2292 16.5625 13.2292ZM14.0625 14.0625C14.0625 12.6817 15.1817 11.5625 16.5625 11.5625C17.9432 11.5625 19.0625 12.6817 19.0625 14.0625C19.0625 15.4432 17.9432 16.5625 16.5625 16.5625C15.1817 16.5625 14.0625 15.4432 14.0625 14.0625Z" fill="#2F2F3F"/>
<path d="M10.8538 3.4375C10.4166 3.4375 10.0622 3.79625 10.0622 4.23878C10.0622 4.68132 10.4166 5.04007 10.8538 5.04007H11.9372C12.1728 5.04007 12.2908 5.04007 12.3639 5.11328C12.4372 5.18651 12.4372 5.30436 12.4372 5.54007V6.53812C12.4372 7.3149 12.4332 8.83833 12.0704 10.1552C11.8896 10.8117 11.6372 11.3476 11.3097 11.7087C11.0048 12.0447 10.6185 12.2516 10.0622 12.2516C9.62492 12.2516 9.27051 12.6103 9.27051 13.0529C9.27051 13.4954 9.62492 13.8542 10.0622 13.8542H12.5547C12.7703 13.8542 12.8781 13.8542 12.9473 13.797C13.0166 13.7398 13.0394 13.6219 13.085 13.3862C13.4007 11.7537 14.8374 10.5208 16.5622 10.5208C16.7177 10.5208 16.7954 10.5208 16.8418 10.5014C16.9267 10.4658 16.9806 10.3955 16.9929 10.3043C16.9997 10.2545 16.9829 10.1922 16.9494 10.0676C16.6752 9.0475 16.1921 8.2041 15.6513 7.53638C15.5716 7.43801 15.5318 7.38882 15.5423 7.34812C15.5529 7.30741 15.6163 7.28192 15.7431 7.23097C16.5473 6.90781 16.9701 5.92097 16.5318 5.07223C16.0128 4.06737 14.9853 3.4375 13.865 3.4375H10.8538Z" fill="#2F2F3F"/>
</svg>
