<svg width="65" height="65" viewBox="0 0 65 65" fill="none" xmlns="http://www.w3.org/2000/svg">
<circle cx="32.5" cy="32.5" r="32.5" fill="#0AB247"/>
<path fill-rule="evenodd" clip-rule="evenodd" d="M41.1878 37.229C40.3824 37.229 39.7295 37.8819 39.7295 38.6873C39.7295 39.4928 40.3824 40.1457 41.1878 40.1457C41.9933 40.1457 42.6462 39.4928 42.6462 38.6873C42.6462 37.8819 41.9933 37.229 41.1878 37.229ZM37.9795 38.6873C37.9795 36.9154 39.4159 35.479 41.1878 35.479C42.9598 35.479 44.3962 36.9154 44.3962 38.6873C44.3962 40.4593 42.9598 41.8957 41.1878 41.8957C39.4159 41.8957 37.9795 40.4593 37.9795 38.6873Z" fill="white"/>
<path d="M21.2961 32.5752C22.5362 31.407 24.2195 30.8125 26.0208 30.8125C27.8222 30.8125 29.5054 31.407 30.7456 32.5752C31.9939 33.751 32.7292 35.4483 32.7292 37.5208C32.7292 38.0041 32.3374 38.3958 31.8542 38.3958L20.1875 38.3958C19.7043 38.3958 19.3125 38.0041 19.3125 37.5208C19.3125 35.4483 20.0477 33.751 21.2961 32.5752Z" fill="white"/>
<path fill-rule="evenodd" clip-rule="evenodd" d="M22.2158 28.3332C22.2158 27.6888 22.7382 27.1665 23.3825 27.1665L28.6325 27.1665C29.2768 27.1665 29.7992 27.6888 29.7992 28.3332C29.7992 28.9775 29.2768 29.4998 28.6325 29.4998L23.3825 29.4998C22.7382 29.4998 22.2158 28.9775 22.2158 28.3332Z" fill="white"/>
<path fill-rule="evenodd" clip-rule="evenodd" d="M23.6878 37.521C23.6878 38.8097 24.7325 39.8543 26.0212 39.8543C27.3098 39.8543 28.3545 38.8097 28.3545 37.521L30.6878 37.521C30.6878 40.0983 28.5985 42.1877 26.0212 42.1877C23.4438 42.1877 21.3545 40.0983 21.3545 37.521L23.6878 37.521Z" fill="white"/>
<path fill-rule="evenodd" clip-rule="evenodd" d="M41.1875 37.5208C40.5431 37.5208 40.0208 38.0432 40.0208 38.6875C40.0208 39.3319 40.5431 39.8542 41.1875 39.8542C41.8318 39.8542 42.3542 39.3319 42.3542 38.6875C42.3542 38.0432 41.8318 37.5208 41.1875 37.5208ZM37.6875 38.6875C37.6875 36.7544 39.2544 35.1875 41.1875 35.1875C43.1205 35.1875 44.6875 36.7545 44.6875 38.6875C44.6875 40.6206 43.1205 42.1875 41.1875 42.1875C39.2544 42.1875 37.6875 40.6205 37.6875 38.6875Z" fill="white"/>
<path d="M33.1962 23.8125C32.584 23.8125 32.0878 24.3148 32.0878 24.9343C32.0878 25.5538 32.584 26.0561 33.1962 26.0561L34.7128 26.0561C35.0428 26.0561 35.2078 26.0561 35.3103 26.1586C35.4128 26.2611 35.4128 26.4261 35.4128 26.7561L35.4128 28.1534C35.4128 29.2409 35.4072 31.3737 34.8994 33.2172C34.6462 34.1363 34.2928 34.8866 33.8343 35.3921C33.4076 35.8626 32.8667 36.1522 32.0878 36.1522C31.4757 36.1522 30.9795 36.6545 30.9795 37.2741C30.9795 37.8936 31.4757 38.3958 32.0878 38.3958L35.5773 38.3958C35.8791 38.3958 36.0301 38.3958 36.1271 38.3158C36.224 38.2358 36.256 38.0707 36.3198 37.7406C36.7617 35.4551 38.7732 33.7292 41.1878 33.7292C41.4055 33.7292 41.5144 33.7292 41.5794 33.702C41.6981 33.6522 41.7736 33.5537 41.7909 33.4261C41.8003 33.3563 41.7769 33.269 41.73 33.0946C41.346 31.6665 40.6697 30.4857 39.9125 29.5509C39.801 29.4132 39.7452 29.3443 39.7601 29.2874C39.7749 29.2304 39.8635 29.1947 40.0411 29.1234C41.1669 28.6709 41.7589 27.2894 41.1452 26.1011C40.4186 24.6943 38.9801 23.8125 37.4118 23.8125L33.1962 23.8125Z" fill="white"/>
</svg>
