<svg width="20" height="20" viewBox="0 0 20 20" fill="none" xmlns="http://www.w3.org/2000/svg">
<path d="M1.6665 13.3334C1.6665 10.6819 3.53199 9.16669 5.83317 9.16669C8.13435 9.16669 9.99984 10.6819 9.99984 13.3334H1.6665Z" stroke="#1E1E1E" stroke-width="1.25" stroke-linejoin="round"/>
<path d="M4.1665 6.66669H7.49984" stroke="#1E1E1E" stroke-width="1.25" stroke-linecap="round" stroke-linejoin="round"/>
<path d="M8.3335 13.3333C8.3335 14.7141 7.2142 15.8333 5.8335 15.8333C4.45279 15.8333 3.3335 14.7141 3.3335 13.3333" stroke="#1E1E1E" stroke-width="1.25"/>
<path d="M16.6667 15.8333C17.5871 15.8333 18.3333 15.0871 18.3333 14.1667C18.3333 13.2462 17.5871 12.5 16.6667 12.5C15.7462 12.5 15 13.2462 15 14.1667C15 15.0871 15.7462 15.8333 16.6667 15.8333Z" stroke="#1E1E1E" stroke-width="1.25"/>
<path d="M13.3333 6.66669C14.4444 7.19809 16.6667 9.3116 16.6667 12.5M13.3249 4.16669H13.7805C14.6012 4.16669 15.3538 4.64941 15.7341 5.41952C15.997 5.95222 15.7341 6.66669 14.9874 6.66669H13.3249M13.3249 4.16669V6.66669M13.3249 4.16669H10.787M13.3249 6.66669C13.3249 8.26089 13.148 13.3334 10 13.3334H14.7221" stroke="#1E1E1E" stroke-width="1.25" stroke-linecap="round" stroke-linejoin="round"/>
</svg>
