<svg width="398" height="237" viewBox="0 0 398 237" fill="none" xmlns="http://www.w3.org/2000/svg">
<rect width="398" height="237" rx="13" fill="#ECFFF3"/>
<circle cx="199" cy="118" r="94" fill="#C3FED8"/>
<path fill-rule="evenodd" clip-rule="evenodd" d="M234.514 83.4853C232.624 81.5945 229.78 80.54 226.973 79.8953C224.073 79.2292 220.753 78.9022 217.491 78.7669C210.957 78.4958 204.279 78.981 200.866 79.2946C198.737 79.4903 196.77 80.3617 195.187 81.7224C183.366 91.8824 172.604 102.414 162.308 113.914C157.597 119.175 157.547 127.031 161.789 132.511C168.786 141.547 176.453 149.214 185.489 156.211C190.968 160.453 198.825 160.403 204.086 155.692C215.586 145.396 226.117 134.634 236.277 122.813C237.638 121.23 238.51 119.263 238.705 117.133C239.019 113.72 239.504 107.043 239.233 100.509C239.098 97.2465 238.771 93.9268 238.105 91.0267C237.46 88.2194 236.405 85.376 234.514 83.4853ZM195.235 104C193.164 104 191.485 105.679 191.485 107.75C191.485 109.821 193.164 111.5 195.235 111.5H195.292C197.362 111.5 199.042 109.821 199.042 107.75C199.042 105.679 197.362 104 195.292 104H195.235ZM195.249 134C193.178 134 191.499 135.679 191.499 137.75C191.499 139.821 193.178 141.5 195.249 141.5H195.306C197.377 141.5 199.056 139.821 199.056 137.75C199.056 135.679 197.377 134 195.306 134H195.249ZM176.5 122.75C176.5 120.679 178.179 119 180.25 119H210.25C212.321 119 214 120.679 214 122.75C214 124.821 212.321 126.5 210.25 126.5H180.25C178.179 126.5 176.5 124.821 176.5 122.75ZM219.625 92.75C222.731 92.75 225.25 95.2684 225.25 98.375C225.25 101.482 222.731 104 219.625 104C216.519 104 214 101.482 214 98.375C214 95.2684 216.519 92.75 219.625 92.75Z" fill="#0AB247"/>
</svg>
