<svg width="18" height="18" viewBox="0 0 18 18" fill="none" xmlns="http://www.w3.org/2000/svg">
<path fill-rule="evenodd" clip-rule="evenodd" d="M17.0625 9.46875C17.0625 8.2779 16.1271 7.3125 14.9732 7.3125C13.4347 7.3125 12.1875 8.59965 12.1875 10.1875V13.0625C12.1875 14.6504 13.4347 15.9375 14.9732 15.9375C16.1271 15.9375 17.0625 14.9721 17.0625 13.7812V9.46875ZM14.9732 8.75003C15.3578 8.75003 15.6696 9.07177 15.6696 9.46875V13.7812C15.6696 14.1782 15.3578 14.5 14.9732 14.5C14.204 14.5 13.5804 13.8564 13.5804 13.0625V10.1875C13.5804 9.3936 14.204 8.75003 14.9732 8.75003Z" fill="#0AB247"/>
<path d="M8.40075 2.38872C7.85265 1.91171 7.01063 1.96283 6.5277 2.50923C6.44273 2.61561 6.2472 2.87459 6.14475 3.05946C5.67248 3.83975 5.52855 4.76912 5.7456 5.65214C5.7699 5.75084 5.8008 5.85062 5.84828 6.00407L6.05333 6.66611C6.13845 6.94105 6.1899 7.10943 6.21623 7.23548C6.23588 7.30501 6.22613 7.4462 6.02993 7.45482C5.89485 7.46687 5.36573 7.46739 5.07045 7.46739C4.14255 7.46738 3.38918 7.46736 2.8134 7.54358C2.22473 7.6215 1.69035 7.79348 1.32638 8.24963C1.25453 8.3397 1.19048 8.4357 1.13498 8.5365C0.850278 9.05378 0.910578 9.61103 1.08203 10.1719C1.24875 10.7175 1.5609 11.3895 1.94325 12.2128C2.29808 12.9768 2.613 13.6549 2.89493 14.1305C3.1866 14.6225 3.49838 15.0093 3.92933 15.3034C4.43415 15.648 5.10728 15.8283 5.68343 15.8837C6.24218 15.9375 6.92843 15.9375 7.7892 15.9375C8.82728 15.9375 10.114 15.9375 10.7696 15.8521C11.4481 15.7637 12.0197 15.575 12.4753 15.1336C12.9334 14.6897 13.1315 14.1289 13.2239 13.4631C13.3125 12.8243 13.3125 12.013 13.3125 11.0101L13.3125 10.1306C13.3128 9.14213 13.313 8.49608 13.0807 7.89705C12.8489 7.29947 12.4117 6.81563 11.7396 6.07177L8.58195 2.57526C8.52233 2.50907 8.46135 2.44145 8.40075 2.38872Z" fill="#0AB247"/>
</svg>
