<svg width="50" height="50" viewBox="0 0 50 50" fill="none" xmlns="http://www.w3.org/2000/svg">
<circle cx="25" cy="25" r="25" fill="#0AB247"/>
<path fill-rule="evenodd" clip-rule="evenodd" d="M14.25 25.625C14.25 24.0372 15.4972 22.75 17.0357 22.75C19.0871 22.75 20.75 24.4662 20.75 26.5833V30.4167C20.75 32.5338 19.0871 34.25 17.0357 34.25C15.4972 34.25 14.25 32.9628 14.25 31.375V25.625ZM17.0357 24.6667C16.5229 24.6667 16.1071 25.0957 16.1071 25.625V31.375C16.1071 31.9043 16.5229 32.3333 17.0357 32.3333C18.0614 32.3333 18.8929 31.4752 18.8929 30.4167V26.5833C18.8929 25.5248 18.0614 24.6667 17.0357 24.6667Z" fill="white"/>
<path d="M25.799 16.185C26.5298 15.549 27.6525 15.6171 28.2964 16.3456C28.4097 16.4875 28.6704 16.8328 28.807 17.0793C29.4367 18.1197 29.6286 19.3588 29.3392 20.5362C29.3068 20.6678 29.2656 20.8008 29.2023 21.0054L28.9289 21.8882C28.8154 22.2547 28.7468 22.4792 28.7117 22.6473C28.6855 22.74 28.6985 22.9283 28.9601 22.9398C29.1402 22.9558 29.8457 22.9565 30.2394 22.9565C31.4766 22.9565 32.4811 22.9565 33.2488 23.0581C34.0337 23.162 34.7462 23.3913 35.2315 23.9995C35.3273 24.1196 35.4127 24.2476 35.4867 24.382C35.8663 25.0717 35.7859 25.8147 35.5573 26.5625C35.335 27.29 34.9188 28.186 34.409 29.2837C33.9359 30.3024 33.516 31.2065 33.1401 31.8407C32.7512 32.4967 32.3355 33.0124 31.7609 33.4046C31.0878 33.864 30.1903 34.1044 29.4221 34.1783C28.6771 34.25 27.7621 34.25 26.6144 34.25C25.2303 34.25 23.5147 34.25 22.6405 34.1361C21.7358 34.0183 20.9738 33.7667 20.3663 33.1781C19.7555 32.5863 19.4914 31.8385 19.3682 30.9508C19.25 30.0991 19.25 29.0173 19.25 27.6801L19.25 26.5075C19.2496 25.1895 19.2494 24.3281 19.5591 23.5294C19.8681 22.7326 20.451 22.0875 21.3472 21.0957L25.5574 16.4337C25.6369 16.3454 25.7182 16.2553 25.799 16.185Z" fill="white"/>
</svg>
