<svg width="24" height="24" viewBox="0 0 24 24" fill="none" xmlns="http://www.w3.org/2000/svg">
<path d="M8.25 5C8.25 2.92893 9.92893 1.25 12 1.25C14.0711 1.25 15.75 2.92893 15.75 5C15.75 6.07361 15.1948 7.11878 14.5258 7.87011C14.1838 8.25412 13.7881 8.58958 13.3715 8.8334C12.9618 9.07316 12.4873 9.25 12 9.25C11.5127 9.25 11.0382 9.07316 10.6285 8.8334C10.2119 8.58958 9.8162 8.25412 9.47423 7.87011C8.80516 7.11878 8.25 6.07361 8.25 5Z" fill="#2F2F3F"/>
<path d="M8.05387 8.50427C7.98472 8.41503 7.95014 8.37041 7.91734 8.34597C7.81975 8.27324 7.69622 8.26548 7.5903 8.32543C7.55471 8.34558 7.51886 8.38147 7.44717 8.45325C5.78017 9.92648 4.59801 12.5039 5.64562 14.9962C5.95101 15.7227 6.6576 16.2043 7.45076 16.2043L7.72752 16.2021C7.95525 16.2002 8.06911 16.1993 8.15144 16.2633C8.23377 16.3274 8.26089 16.438 8.31512 16.6592L9.2793 20.5913C9.58817 21.851 10.7044 22.7504 12.0022 22.7504C13.3 22.7504 14.4161 21.851 14.725 20.5913L15.6892 16.6592C15.7434 16.438 15.7705 16.3274 15.8529 16.2633C15.9352 16.1993 16.0491 16.2002 16.2768 16.2021L16.5535 16.2043C17.3467 16.2043 18.0533 15.7227 18.3587 14.9962C19.4063 12.5039 18.2242 9.92649 16.5572 8.45325C16.4853 8.38125 16.4493 8.34525 16.4136 8.32507C16.3078 8.26531 16.1845 8.27306 16.087 8.34559C16.0541 8.37008 16.0194 8.41483 15.95 8.50432C15.8508 8.63238 15.7496 8.75376 15.648 8.86789C15.2169 9.35201 14.702 9.79407 14.1312 10.1282C13.5815 10.4499 12.8433 10.7502 12.002 10.7502C11.1607 10.7502 10.4225 10.4499 9.87277 10.1282C9.30194 9.79407 8.7871 9.35201 8.35597 8.86789C8.25432 8.75374 8.15314 8.63235 8.05387 8.50427Z" fill="#2F2F3F"/>
</svg>
