<svg width="65" height="65" viewBox="0 0 65 65" fill="none" xmlns="http://www.w3.org/2000/svg">
<circle cx="32.5" cy="32.5" r="32.5" fill="#0AB247"/>
<path d="M38.774 36.3103C38.9097 36.391 39.0773 36.4856 39.2672 36.5927C40.0988 37.0618 41.3558 37.771 42.2171 38.614C42.7556 39.1412 43.2674 39.8359 43.3604 40.6871C43.4593 41.5922 43.0645 42.4417 42.2723 43.1964C40.9056 44.4984 39.2655 45.5419 37.1442 45.5419L26.8562 45.5419C24.7349 45.5419 23.0948 44.4984 21.7281 43.1964C20.9359 42.4417 20.541 41.5922 20.64 40.6871C20.733 39.8359 21.2448 39.1412 21.7834 38.614C22.6446 37.771 23.9017 37.0618 24.7333 36.5927C24.923 36.4856 25.0907 36.391 25.2264 36.3103C29.3728 33.8412 34.6277 33.8412 38.774 36.3103Z" fill="white"/>
<path d="M25.875 26.5835C25.875 23.2007 28.6173 20.4585 32 20.4585C35.3828 20.4585 38.125 23.2007 38.125 26.5835C38.125 29.9662 35.3828 32.7085 32 32.7085C28.6172 32.7085 25.875 29.9662 25.875 26.5835Z" fill="white"/>
</svg>
