<svg width="49" height="37" viewBox="0 0 49 37" fill="none" xmlns="http://www.w3.org/2000/svg">
<g clip-path="url(#clip0_10441_91731)">
<path d="M39.9929 16.388C39.9929 16.388 40.6391 19.4472 40.7846 20.088H37.9441L39.3054 16.5109C39.2886 16.536 39.5856 15.762 39.7556 15.2854L39.9929 16.388ZM49.0013 3.94716V32.89C49.0009 33.9368 48.5705 34.9405 47.8047 35.6807C47.0389 36.4208 46.0004 36.8368 44.9174 36.8372H4.0836C3.00062 36.8368 1.96212 36.4208 1.19633 35.6807C0.430553 34.9405 0.000161697 33.9368 -0.000244141 32.89V3.94716C0.000161697 2.90043 0.430553 1.89668 1.19633 1.15653C1.96212 0.416379 3.00062 0.000392255 4.0836 0H44.9174C46.0004 0.000392255 47.0389 0.416379 47.8047 1.15653C48.5705 1.89668 49.0009 2.90043 49.0013 3.94716ZM12.974 24.602L18.3503 11.8415H14.735L11.3923 20.5572L11.0263 18.7901L9.83497 12.9189C9.63897 12.1049 9.03566 11.874 8.28688 11.8415H2.78357L2.72385 12.096C3.98418 12.3949 5.19313 12.8685 6.3131 13.502L9.35876 24.602H12.974ZM21.0054 24.6183L23.1492 11.8415H19.7299L17.5954 24.6183H21.0054ZM32.9063 20.4418C32.9232 18.9869 32.0044 17.8769 30.0398 16.9638C28.8408 16.3792 28.1089 15.9855 28.1089 15.3846C28.1258 14.8414 28.7306 14.282 30.0735 14.282C30.9482 14.2582 31.8173 14.424 32.6169 14.7674L32.9232 14.9066L33.3917 12.1434C32.4142 11.7817 31.3759 11.5976 30.3292 11.6002C26.9513 11.6002 24.5778 13.3437 24.561 15.8256C24.535 17.6594 26.2622 18.6791 27.5561 19.2948C28.8745 19.9193 29.3263 20.3308 29.3263 20.8813C29.3094 21.7368 28.2544 22.1304 27.2759 22.1304C25.9146 22.1304 25.1827 21.9247 24.0679 21.4482L23.6178 21.2424L23.1415 24.1122C23.9409 24.4659 25.4216 24.7782 26.9528 24.7944C30.5421 24.8018 32.8818 23.0836 32.9078 20.4373L32.9063 20.4418ZM44.9174 24.6183L42.1612 11.8415H39.5152C38.699 11.8415 38.0774 12.0724 37.7282 12.9026L32.6491 24.6198H36.2383C36.2383 24.6198 36.8248 23.0406 36.9534 22.7047H41.3435C41.4461 23.1576 41.7523 24.6198 41.7523 24.6198L44.9174 24.6183Z" fill="#1A1F71"/>
</g>
<defs>
<clipPath id="clip0_10441_91731">
<rect width="49" height="37" fill="white"/>
</clipPath>
</defs>
</svg>
