<svg width="49" height="46" viewBox="0 0 49 46" fill="none" xmlns="http://www.w3.org/2000/svg">
<path d="M47.6746 7.70455C44.9472 6.46978 42.2178 6 39.4897 6C30.8294 5.99924 22.1699 10.7312 13.5096 10.7312C11.3377 10.7312 9.16718 10.4337 6.99527 9.68991C6.75128 9.60643 6.5066 9.56696 6.26754 9.56696C5.05748 9.56696 4 10.5779 4 11.9811V36.0589C4 37.0174 4.50835 37.9258 5.32467 38.2947C8.05205 39.5302 10.7815 40 13.5096 40C22.1699 40 30.8301 35.2681 39.4904 35.2681C41.6623 35.2681 43.8328 35.5656 46.0047 36.3093C46.2487 36.3928 46.4934 36.4323 46.7325 36.4323C47.9425 36.4323 49 35.4214 49 34.0181V9.94112C48.9993 8.98183 48.4909 8.07415 47.6746 7.70455ZM26.4996 30.2857C23.3926 30.2857 20.8747 27.0231 20.8747 23C20.8747 18.9762 23.3933 15.7143 26.4996 15.7143C29.606 15.7143 32.1246 18.9762 32.1246 23C32.1246 27.0246 29.6053 30.2857 26.4996 30.2857Z" fill="#0AB247"/>
</svg>
